<svg class="hide" version="1.1" xmlns="http://www.w3.org/2000/svg" xmlns:xlink="http://www.w3.org/1999/xlink">
	<symbol id="icon-gitlab" width="16" height="16" viewBox="0 0 16 16">
		<path d="M0.929 6.304l7.071 9.063-7.75-5.625c-0.214-0.161-0.304-0.438-0.223-0.688l0.902-2.75zM5.054 6.304h5.893l-2.946 9.063zM3.286 0.839l1.768 5.464h-4.125l1.768-5.464c0.098-0.277 0.491-0.277 0.589 0zM15.071 6.304l0.902 2.75c0.080 0.25-0.009 0.527-0.223 0.688l-7.75 5.625 7.071-9.063zM15.071 6.304h-4.125l1.768-5.464c0.098-0.277 0.491-0.277 0.589 0z"></path>
	</symbol>
	<symbol id="icon-focallength" width="16" height="16" viewBox="0 0 16 16">
		<path d="M16 8c0 0.152-0.063 0.295-0.17 0.402l-2.286 2.286c-0.107 0.107-0.25 0.17-0.402 0.17-0.313 0-0.571-0.259-0.571-0.571v-1.143h-9.143v1.143c0 0.313-0.259 0.571-0.571 0.571-0.152 0-0.295-0.063-0.402-0.17l-2.286-2.286c-0.107-0.107-0.17-0.25-0.17-0.402s0.063-0.295 0.17-0.402l2.286-2.286c0.107-0.107 0.25-0.17 0.402-0.17 0.313 0 0.571 0.259 0.571 0.571v1.143h9.143v-1.143c0-0.313 0.259-0.571 0.571-0.571 0.152 0 0.295 0.063 0.402 0.17l2.286 2.286c0.107 0.107 0.17 0.25 0.17 0.402z"></path>
	</symbol>
	<symbol id="icon-aperture" width="16" height="16" viewBox="0 0 16 16">
		<path d="M10.586 6.99l2.845-4.832c-1.428-1.329-3.326-2.158-5.431-2.158-0.499 0-0.982 0.059-1.456 0.146l4.042 6.843zM9.976 10h5.74c0.166-0.643 0.284-1.305 0.284-2 0-1.937-0.715-3.688-1.861-5.072l-4.162 7.072zM8.25 5l-2.704-4.576c-2.25 0.73-4.069 2.399-4.952 4.576h7.656zM7.816 11l2.696 4.559c2.224-0.742 4.020-2.4 4.895-4.559h-7.59zM6.053 6h-5.769c-0.167 0.643-0.283 1.304-0.283 2 0 1.945 0.722 3.705 1.878 5.094l4.175-7.094zM5.459 8.98l-2.872 4.879c1.426 1.316 3.317 2.14 5.413 2.14 0.521 0 1.027-0.059 1.52-0.152l-4.061-6.867z"></path>
	</symbol>
	<symbol id="icon-home" width="16" height="16" viewBox="0 0 16 16">
		<path d="M16 9.226l-8-6.21-8 6.21v-2.532l8-6.21 8 6.21zM14 9v6h-4v-4h-4v4h-4v-6l6-4.5z"></path>
	</symbol>
	<symbol id="icon-photo" width="18" height="16" viewBox="0 0 18 16">
		<path d="M17 2h-1v-1c0-0.55-0.45-1-1-1h-14c-0.55 0-1 0.45-1 1v12c0 0.55 0.45 1 1 1h1v1c0 0.55 0.45 1 1 1h14c0.55 0 1-0.45 1-1v-12c0-0.55-0.45-1-1-1zM2 3v10h-0.998c-0.001-0.001-0.001-0.001-0.002-0.002v-11.996c0.001-0.001 0.001-0.001 0.002-0.002h13.996c0.001 0.001 0.001 0.001 0.002 0.002v0.998h-12c-0.55 0-1 0.45-1 1v0zM17 14.998c-0.001 0.001-0.001 0.001-0.002 0.002h-13.996c-0.001-0.001-0.001-0.001-0.002-0.002v-11.996c0.001-0.001 0.001-0.001 0.002-0.002h13.996c0.001 0.001 0.001 0.001 0.002 0.002v11.996z"></path>
		<path d="M15 5.5c0 0.828-0.672 1.5-1.5 1.5s-1.5-0.672-1.5-1.5 0.672-1.5 1.5-1.5 1.5 0.672 1.5 1.5z"></path>
		<path d="M16 14h-12v-2l3.5-6 4 5h1l3.5-3z"></path>
	</symbol>
	<symbol id="icon-camera" width="16" height="16" viewBox="0 0 16 16">
		<path d="M4.75 9.5c0 1.795 1.455 3.25 3.25 3.25s3.25-1.455 3.25-3.25-1.455-3.25-3.25-3.25-3.25 1.455-3.25 3.25zM15 4h-3.5c-0.25-1-0.5-2-1.5-2h-4c-1 0-1.25 1-1.5 2h-3.5c-0.55 0-1 0.45-1 1v9c0 0.55 0.45 1 1 1h14c0.55 0 1-0.45 1-1v-9c0-0.55-0.45-1-1-1zM8 13.938c-2.451 0-4.438-1.987-4.438-4.438s1.987-4.438 4.438-4.438c2.451 0 4.438 1.987 4.438 4.438s-1.987 4.438-4.438 4.438zM15 7h-2v-1h2v1z"></path>
	</symbol>
	<symbol id="icon-journal" width="16" height="16" viewBox="0 0 16 16">
		<path d="M13.5 0h-12c-0.825 0-1.5 0.675-1.5 1.5v13c0 0.825 0.675 1.5 1.5 1.5h12c0.825 0 1.5-0.675 1.5-1.5v-13c0-0.825-0.675-1.5-1.5-1.5zM13 14h-11v-12h11v12zM4 7h7v1h-7zM4 9h7v1h-7zM4 11h7v1h-7zM4 5h7v1h-7z"></path>
	</symbol>
	<symbol id="icon-contact" width="16" height="16" viewBox="0 0 16 16">
		<path d="M13.5 0h-12c-0.825 0-1.5 0.675-1.5 1.5v13c0 0.825 0.675 1.5 1.5 1.5h12c0.825 0 1.5-0.675 1.5-1.5v-13c0-0.825-0.675-1.5-1.5-1.5zM13 14h-11v-12h11v12zM4 9h7v1h-7zM4 11h7v1h-7zM5 4.5c0-0.828 0.672-1.5 1.5-1.5s1.5 0.672 1.5 1.5c0 0.828-0.672 1.5-1.5 1.5s-1.5-0.672-1.5-1.5zM7.5 6h-2c-0.825 0-1.5 0.45-1.5 1v1h5v-1c0-0.55-0.675-1-1.5-1z"></path>
	</symbol>
	<symbol id="icon-note" width="16" height="16" viewBox="0 0 16 16">
		<path d="M14.341 3.579c-0.347-0.473-0.831-1.027-1.362-1.558s-1.085-1.015-1.558-1.362c-0.806-0.591-1.197-0.659-1.421-0.659h-7.75c-0.689 0-1.25 0.561-1.25 1.25v13.5c0 0.689 0.561 1.25 1.25 1.25h11.5c0.689 0 1.25-0.561 1.25-1.25v-9.75c0-0.224-0.068-0.615-0.659-1.421zM12.271 2.729c0.48 0.48 0.856 0.912 1.134 1.271h-2.406v-2.405c0.359 0.278 0.792 0.654 1.271 1.134zM14 14.75c0 0.136-0.114 0.25-0.25 0.25h-11.5c-0.135 0-0.25-0.114-0.25-0.25v-13.5c0-0.135 0.115-0.25 0.25-0.25 0 0 7.749-0 7.75 0v3.5c0 0.276 0.224 0.5 0.5 0.5h3.5v9.75z"></path>
		<path d="M11.5 13h-7c-0.276 0-0.5-0.224-0.5-0.5s0.224-0.5 0.5-0.5h7c0.276 0 0.5 0.224 0.5 0.5s-0.224 0.5-0.5 0.5z"></path>
		<path d="M11.5 11h-7c-0.276 0-0.5-0.224-0.5-0.5s0.224-0.5 0.5-0.5h7c0.276 0 0.5 0.224 0.5 0.5s-0.224 0.5-0.5 0.5z"></path>
		<path d="M11.5 9h-7c-0.276 0-0.5-0.224-0.5-0.5s0.224-0.5 0.5-0.5h7c0.276 0 0.5 0.224 0.5 0.5s-0.224 0.5-0.5 0.5z"></path>
	</symbol>
	<symbol id="icon-location" width="16" height="16" viewBox="0 0 16 16">
		<path d="M8 0c-2.761 0-5 2.239-5 5 0 5 5 11 5 11s5-6 5-11c0-2.761-2.239-5-5-5zM8 8c-1.657 0-3-1.343-3-3s1.343-3 3-3 3 1.343 3 3-1.343 3-3 3z"></path>
	</symbol>
	<symbol id="icon-clock" width="16" height="16" viewBox="0 0 16 16">
		<path d="M10.293 11.707l-3.293-3.293v-4.414h2v3.586l2.707 2.707zM8 0c-4.418 0-8 3.582-8 8s3.582 8 8 8 8-3.582 8-8-3.582-8-8-8zM8 14c-3.314 0-6-2.686-6-6s2.686-6 6-6c3.314 0 6 2.686 6 6s-2.686 6-6 6z"></path>
	</symbol>
	<symbol id="icon-reply" width="16" height="16" viewBox="0 0 16 16">
		<path d="M7 12.119v3.881l-6-6 6-6v3.966c6.98 0.164 6.681-4.747 4.904-7.966 4.386 4.741 3.455 12.337-4.904 12.119z"></path>
	</symbol>
	<symbol id="icon-key" width="16" height="16" viewBox="0 0 16 16">
		<path d="M11 0c-2.761 0-5 2.239-5 5 0 0.313 0.029 0.619 0.084 0.916l-6.084 6.084v3c0 0.552 0.448 1 1 1h1v-1h2v-2h2v-2h2l1.298-1.298c0.531 0.192 1.105 0.298 1.702 0.298 2.761 0 5-2.239 5-5s-2.239-5-5-5zM12.498 5.002c-0.828 0-1.5-0.672-1.5-1.5s0.672-1.5 1.5-1.5 1.5 0.672 1.5 1.5-0.672 1.5-1.5 1.5z"></path>
	</symbol>
	<symbol id="icon-link" width="16" height="16" viewBox="0 0 16 16">
		<path d="M6.879 9.934c-0.208 0-0.416-0.079-0.575-0.238-1.486-1.486-1.486-3.905 0-5.392l3-3c0.72-0.72 1.678-1.117 2.696-1.117s1.976 0.397 2.696 1.117c1.486 1.487 1.486 3.905 0 5.392l-1.371 1.371c-0.317 0.317-0.832 0.317-1.149 0s-0.317-0.832 0-1.149l1.371-1.371c0.853-0.853 0.853-2.241 0-3.094-0.413-0.413-0.963-0.641-1.547-0.641s-1.134 0.228-1.547 0.641l-3 3c-0.853 0.853-0.853 2.241 0 3.094 0.317 0.317 0.317 0.832 0 1.149-0.159 0.159-0.367 0.238-0.575 0.238z"></path>
		<path d="M4 15.813c-1.018 0-1.976-0.397-2.696-1.117-1.486-1.486-1.486-3.905 0-5.392l1.371-1.371c0.317-0.317 0.832-0.317 1.149 0s0.317 0.832 0 1.149l-1.371 1.371c-0.853 0.853-0.853 2.241 0 3.094 0.413 0.413 0.962 0.641 1.547 0.641s1.134-0.228 1.547-0.641l3-3c0.853-0.853 0.853-2.241 0-3.094-0.317-0.317-0.317-0.832 0-1.149s0.832-0.317 1.149 0c1.486 1.486 1.486 3.905 0 5.392l-3 3c-0.72 0.72-1.678 1.117-2.696 1.117z"></path>
	</symbol>
	<symbol id="icon-subscribe" width="16" height="16" viewBox="0 0 16 16">
		<path d="M8 3c-3.489 0-6.514 2.032-8 5 1.486 2.968 4.511 5 8 5s6.514-2.032 8-5c-1.486-2.968-4.511-5-8-5zM11.945 5.652c0.94 0.6 1.737 1.403 2.335 2.348-0.598 0.946-1.395 1.749-2.335 2.348-1.181 0.753-2.545 1.152-3.944 1.152s-2.763-0.398-3.945-1.152c-0.94-0.6-1.737-1.403-2.335-2.348 0.598-0.946 1.395-1.749 2.335-2.348 0.061-0.039 0.123-0.077 0.185-0.114-0.156 0.427-0.241 0.888-0.241 1.369 0 2.209 1.791 4 4 4s4-1.791 4-4c0-0.481-0.085-0.942-0.241-1.369 0.062 0.037 0.124 0.075 0.185 0.114v0zM8 6.5c0 0.828-0.672 1.5-1.5 1.5s-1.5-0.672-1.5-1.5 0.672-1.5 1.5-1.5 1.5 0.672 1.5 1.5z"></path>
	</symbol>
	<symbol id="icon-bookmark" width="16" height="16" viewBox="0 0 16 16">
		<path d="M4 2v14l5-5 5 5v-14zM12 0h-10v14l1-1v-12h9z"></path>
	</symbol>
	<symbol id="icon-sensitivity" width="16" height="16" viewBox="0 0 16 16">
		<path d="M8 4c-2.209 0-4 1.791-4 4s1.791 4 4 4 4-1.791 4-4-1.791-4-4-4zM8 10.5v-5c1.379 0 2.5 1.122 2.5 2.5s-1.121 2.5-2.5 2.5zM8 13c0.552 0 1 0.448 1 1v1c0 0.552-0.448 1-1 1s-1-0.448-1-1v-1c0-0.552 0.448-1 1-1zM8 3c-0.552 0-1-0.448-1-1v-1c0-0.552 0.448-1 1-1s1 0.448 1 1v1c0 0.552-0.448 1-1 1zM15 7c0.552 0 1 0.448 1 1s-0.448 1-1 1h-1c-0.552 0-1-0.448-1-1s0.448-1 1-1h1zM3 8c0 0.552-0.448 1-1 1h-1c-0.552 0-1-0.448-1-1s0.448-1 1-1h1c0.552 0 1 0.448 1 1zM12.95 11.536l0.707 0.707c0.39 0.39 0.39 1.024 0 1.414s-1.024 0.39-1.414 0l-0.707-0.707c-0.39-0.39-0.39-1.024 0-1.414s1.024-0.39 1.414 0zM3.050 4.464l-0.707-0.707c-0.391-0.391-0.391-1.024 0-1.414s1.024-0.391 1.414 0l0.707 0.707c0.391 0.391 0.391 1.024 0 1.414s-1.024 0.391-1.414 0zM12.95 4.464c-0.39 0.391-1.024 0.391-1.414 0s-0.39-1.024 0-1.414l0.707-0.707c0.39-0.391 1.024-0.391 1.414 0s0.39 1.024 0 1.414l-0.707 0.707zM3.050 11.536c0.39-0.39 1.024-0.39 1.414 0s0.391 1.024 0 1.414l-0.707 0.707c-0.391 0.39-1.024 0.39-1.414 0s-0.391-1.024 0-1.414l0.707-0.707z"></path>
	</symbol>
	<symbol id="icon-repost" width="16" height="16" viewBox="0 0 16 16">
		<path d="M2 5h10v3l4-4-4-4v3h-12v6h2zM14 11h-10v-3l-4 4 4 4v-3h12v-6h-2z"></path>
	</symbol>
	<symbol id="icon-lens" width="16" height="16" viewBox="0 0 16 16">
		<path d="M8 0c-4.418 0-8 3.582-8 8s3.582 8 8 8 8-3.582 8-8-3.582-8-8-8zM8 14c-3.314 0-6-2.686-6-6s2.686-6 6-6c3.314 0 6 2.686 6 6s-2.686 6-6 6zM5 8c0-1.657 1.343-3 3-3s3 1.343 3 3c0 1.657-1.343 3-3 3s-3-1.343-3-3z"></path>
	</symbol>
	<symbol id="icon-article" width="16" height="16" viewBox="0 0 16 16">
		<path d="M0 1v14h16v-14h-16zM15 14h-14v-12h14v12zM14 3h-12v10h12v-10zM7 8h-1v1h-1v1h-1v-1h1v-1h1v-1h-1v-1h-1v-1h1v1h1v1h1v1zM11 10h-3v-1h3v1z"></path>
	</symbol>
	<symbol id="icon-email" width="16" height="16" viewBox="0 0 16 16">
		<path d="M13.333 0h-10.666c-1.467 0-2.667 1.2-2.667 2.667v10.666c0 1.467 1.2 2.667 2.667 2.667h10.666c1.468 0 2.667-1.2 2.667-2.667v-10.666c0-1.467-1.199-2.667-2.667-2.667zM4 4h8c0.143 0 0.281 0.031 0.409 0.088l-4.409 5.143-4.409-5.143c0.127-0.058 0.266-0.088 0.409-0.088zM3 11v-6c0-0.021 0.001-0.042 0.002-0.063l2.932 3.421-2.9 2.9c-0.023-0.083-0.034-0.17-0.034-0.258zM12 12h-8c-0.088 0-0.175-0.012-0.258-0.034l2.846-2.846 1.413 1.648 1.413-1.648 2.846 2.846c-0.083 0.023-0.17 0.034-0.258 0.034zM13 11c0 0.088-0.012 0.175-0.034 0.258l-2.9-2.9 2.932-3.421c0.001 0.021 0.002 0.042 0.002 0.063v6z"></path>
	</symbol>
	<symbol id="icon-telegram" width="16" height="16" viewBox="0 0 16 16">
		<path d="M8 0c-4.419 0-8 3.581-8 8s3.581 8 8 8 8-3.581 8-8-3.581-8-8-8zM11.931 5.484l-1.313 6.184c-0.091 0.441-0.356 0.544-0.725 0.341l-2-1.478-0.959 0.934c-0.112 0.109-0.2 0.2-0.4 0.2-0.259 0-0.216-0.097-0.303-0.344l-0.681-2.237-1.978-0.616c-0.428-0.131-0.431-0.425 0.097-0.634l7.706-2.975c0.35-0.159 0.691 0.084 0.556 0.625z"></path>
	</symbol>
	<symbol id="icon-rss" width="16" height="16" viewBox="0 0 16 16">
		<path d="M14.5 0h-13c-0.825 0-1.5 0.675-1.5 1.5v13c0 0.825 0.675 1.5 1.5 1.5h13c0.825 0 1.5-0.675 1.5-1.5v-13c0-0.825-0.675-1.5-1.5-1.5zM4.359 12.988c-0.75 0-1.359-0.603-1.359-1.353 0-0.744 0.609-1.356 1.359-1.356 0.753 0 1.359 0.613 1.359 1.356 0 0.75-0.609 1.353-1.359 1.353zM7.772 13c0-1.278-0.497-2.481-1.397-3.381-0.903-0.903-2.1-1.4-3.375-1.4v-1.956c3.713 0 6.738 3.022 6.738 6.737h-1.966zM11.244 13c0-4.547-3.697-8.25-8.241-8.25v-1.956c5.625 0 10.203 4.581 10.203 10.206h-1.963z"></path>
	</symbol>
	<symbol id="icon-flickr" width="16" height="16" viewBox="0 0 16 16">
		<path d="M14.5 0h-13c-0.825 0-1.5 0.675-1.5 1.5v13c0 0.825 0.675 1.5 1.5 1.5h13c0.825 0 1.5-0.675 1.5-1.5v-13c0-0.825-0.675-1.5-1.5-1.5zM4.5 10.5c-1.381 0-2.5-1.119-2.5-2.5s1.119-2.5 2.5-2.5 2.5 1.119 2.5 2.5-1.119 2.5-2.5 2.5zM11.5 10.5c-1.381 0-2.5-1.119-2.5-2.5s1.119-2.5 2.5-2.5c1.381 0 2.5 1.119 2.5 2.5s-1.119 2.5-2.5 2.5z"></path>
	</symbol>
	<symbol id="icon-github" width="16" height="16" viewBox="0 0 16 16">
		<path d="M8 0.198c-4.418 0-8 3.582-8 8 0 3.535 2.292 6.533 5.471 7.591 0.4 0.074 0.547-0.174 0.547-0.385 0-0.191-0.008-0.821-0.011-1.489-2.226 0.484-2.695-0.944-2.695-0.944-0.364-0.925-0.888-1.171-0.888-1.171-0.726-0.497 0.055-0.486 0.055-0.486 0.803 0.056 1.226 0.824 1.226 0.824 0.714 1.223 1.872 0.869 2.328 0.665 0.072-0.517 0.279-0.87 0.508-1.070-1.777-0.202-3.645-0.888-3.645-3.954 0-0.873 0.313-1.587 0.824-2.147-0.083-0.202-0.357-1.015 0.077-2.117 0 0 0.672-0.215 2.201 0.82 0.638-0.177 1.322-0.266 2.002-0.269 0.68 0.003 1.365 0.092 2.004 0.269 1.527-1.035 2.198-0.82 2.198-0.82 0.435 1.102 0.162 1.916 0.079 2.117 0.513 0.56 0.823 1.274 0.823 2.147 0 3.073-1.872 3.749-3.653 3.947 0.287 0.248 0.543 0.735 0.543 1.481 0 1.070-0.009 1.932-0.009 2.195 0 0.213 0.144 0.462 0.55 0.384 3.177-1.059 5.466-4.057 5.466-7.59 0-4.418-3.582-8-8-8z"></path>
	</symbol>
	<symbol id="icon-creditcard" width="16" height="16" viewBox="0 0 16 16">
		<path d="M29 4h-26c-1.65 0-3 1.35-3 3v18c0 1.65 1.35 3 3 3h26c1.65 0 3-1.35 3-3v-18c0-1.65-1.35-3-3-3zM3 6h26c0.542 0 1 0.458 1 1v3h-28v-3c0-0.542 0.458-1 1-1zM29 26h-26c-0.542 0-1-0.458-1-1v-9h28v9c0 0.542-0.458 1-1 1zM4 20h2v4h-2zM8 20h2v4h-2zM12 20h2v4h-2z"></path>
	</symbol>

	<symbol id="qr-vcard" viewBox="0 0 90 90" width="90" height="90" >
		<path fill="#fff" d="M0 0h45v45H0z"/>
			<path d="M2 2h1v1H2zM3 2h1v1H3zM4 2h1v1H4zM5 2h1v1H5zM6 2h1v1H6zM7 2h1v1H7zM8 2h1v1H8zM10 2h1v1h-1zM11 2h1v1h-1zM12 2h1v1h-1zM14 2h1v1h-1zM16 2h1v1h-1zM18 2h1v1h-1zM20 2h1v1h-1zM23 2h1v1h-1zM24 2h1v1h-1zM25 2h1v1h-1zM27 2h1v1h-1zM28 2h1v1h-1zM31 2h1v1h-1zM33 2h1v1h-1zM34 2h1v1h-1zM36 2h1v1h-1zM37 2h1v1h-1zM38 2h1v1h-1zM39 2h1v1h-1zM40 2h1v1h-1zM41 2h1v1h-1zM42 2h1v1h-1zM2 3h1v1H2zM8 3h1v1H8zM11 3h1v1h-1zM12 3h1v1h-1zM14 3h1v1h-1zM19 3h1v1h-1zM21 3h1v1h-1zM22 3h1v1h-1zM24 3h1v1h-1zM28 3h1v1h-1zM29 3h1v1h-1zM33 3h1v1h-1zM34 3h1v1h-1zM36 3h1v1h-1zM42 3h1v1h-1zM2 4h1v1H2zM4 4h1v1H4zM5 4h1v1H5zM6 4h1v1H6zM8 4h1v1H8zM11 4h1v1h-1zM12 4h1v1h-1zM18 4h1v1h-1zM19 4h1v1h-1zM20 4h1v1h-1zM21 4h1v1h-1zM23 4h1v1h-1zM24 4h1v1h-1zM26 4h1v1h-1zM27 4h1v1h-1zM29 4h1v1h-1zM30 4h1v1h-1zM32 4h1v1h-1zM34 4h1v1h-1zM36 4h1v1h-1zM38 4h1v1h-1zM39 4h1v1h-1zM40 4h1v1h-1zM42 4h1v1h-1zM2 5h1v1H2zM4 5h1v1H4zM5 5h1v1H5zM6 5h1v1H6zM8 5h1v1H8zM23 5h1v1h-1zM24 5h1v1h-1zM27 5h1v1h-1zM29 5h1v1h-1zM31 5h1v1h-1zM36 5h1v1h-1zM38 5h1v1h-1zM39 5h1v1h-1zM40 5h1v1h-1zM42 5h1v1h-1zM2 6h1v1H2zM4 6h1v1H4zM5 6h1v1H5zM6 6h1v1H6zM8 6h1v1H8zM11 6h1v1h-1zM13 6h1v1h-1zM15 6h1v1h-1zM16 6h1v1h-1zM17 6h1v1h-1zM19 6h1v1h-1zM20 6h1v1h-1zM22 6h1v1h-1zM24 6h1v1h-1zM27 6h1v1h-1zM28 6h1v1h-1zM30 6h1v1h-1zM31 6h1v1h-1zM33 6h1v1h-1zM36 6h1v1h-1zM38 6h1v1h-1zM39 6h1v1h-1zM40 6h1v1h-1zM42 6h1v1h-1zM2 7h1v1H2zM8 7h1v1H8zM11 7h1v1h-1zM12 7h1v1h-1zM14 7h1v1h-1zM15 7h1v1h-1zM16 7h1v1h-1zM19 7h1v1h-1zM22 7h1v1h-1zM24 7h1v1h-1zM25 7h1v1h-1zM28 7h1v1h-1zM36 7h1v1h-1zM42 7h1v1h-1zM2 8h1v1H2zM3 8h1v1H3zM4 8h1v1H4zM5 8h1v1H5zM6 8h1v1H6zM7 8h1v1H7zM8 8h1v1H8zM10 8h1v1h-1zM12 8h1v1h-1zM14 8h1v1h-1zM16 8h1v1h-1zM18 8h1v1h-1zM20 8h1v1h-1zM22 8h1v1h-1zM24 8h1v1h-1zM26 8h1v1h-1zM28 8h1v1h-1zM30 8h1v1h-1zM32 8h1v1h-1zM34 8h1v1h-1zM36 8h1v1h-1zM37 8h1v1h-1zM38 8h1v1h-1zM39 8h1v1h-1zM40 8h1v1h-1zM41 8h1v1h-1zM42 8h1v1h-1zM10 9h1v1h-1zM14 9h1v1h-1zM15 9h1v1h-1zM16 9h1v1h-1zM21 9h1v1h-1zM22 9h1v1h-1zM24 9h1v1h-1zM30 9h1v1h-1zM33 9h1v1h-1zM2 10h1v1H2zM3 10h1v1H3zM5 10h1v1H5zM6 10h1v1H6zM8 10h1v1H8zM13 10h1v1h-1zM16 10h1v1h-1zM17 10h1v1h-1zM19 10h1v1h-1zM21 10h1v1h-1zM22 10h1v1h-1zM23 10h1v1h-1zM26 10h1v1h-1zM28 10h1v1h-1zM29 10h1v1h-1zM30 10h1v1h-1zM31 10h1v1h-1zM32 10h1v1h-1zM33 10h1v1h-1zM36 10h1v1h-1zM42 10h1v1h-1zM4 11h1v1H4zM6 11h1v1H6zM10 11h1v1h-1zM13 11h1v1h-1zM14 11h1v1h-1zM16 11h1v1h-1zM17 11h1v1h-1zM21 11h1v1h-1zM23 11h1v1h-1zM24 11h1v1h-1zM27 11h1v1h-1zM30 11h1v1h-1zM32 11h1v1h-1zM33 11h1v1h-1zM36 11h1v1h-1zM37 11h1v1h-1zM38 11h1v1h-1zM39 11h1v1h-1zM42 11h1v1h-1zM2 12h1v1H2zM5 12h1v1H5zM6 12h1v1H6zM7 12h1v1H7zM8 12h1v1H8zM11 12h1v1h-1zM12 12h1v1h-1zM13 12h1v1h-1zM16 12h1v1h-1zM17 12h1v1h-1zM18 12h1v1h-1zM19 12h1v1h-1zM20 12h1v1h-1zM22 12h1v1h-1zM25 12h1v1h-1zM29 12h1v1h-1zM31 12h1v1h-1zM32 12h1v1h-1zM33 12h1v1h-1zM34 12h1v1h-1zM35 12h1v1h-1zM36 12h1v1h-1zM39 12h1v1h-1zM40 12h1v1h-1zM2 13h1v1H2zM3 13h1v1H3zM4 13h1v1H4zM6 13h1v1H6zM7 13h1v1H7zM11 13h1v1h-1zM13 13h1v1h-1zM16 13h1v1h-1zM18 13h1v1h-1zM19 13h1v1h-1zM25 13h1v1h-1zM28 13h1v1h-1zM30 13h1v1h-1zM31 13h1v1h-1zM32 13h1v1h-1zM33 13h1v1h-1zM34 13h1v1h-1zM38 13h1v1h-1zM42 13h1v1h-1zM2 14h1v1H2zM5 14h1v1H5zM8 14h1v1H8zM9 14h1v1H9zM11 14h1v1h-1zM14 14h1v1h-1zM15 14h1v1h-1zM16 14h1v1h-1zM17 14h1v1h-1zM18 14h1v1h-1zM19 14h1v1h-1zM20 14h1v1h-1zM21 14h1v1h-1zM22 14h1v1h-1zM23 14h1v1h-1zM24 14h1v1h-1zM26 14h1v1h-1zM29 14h1v1h-1zM30 14h1v1h-1zM33 14h1v1h-1zM35 14h1v1h-1zM36 14h1v1h-1zM42 14h1v1h-1zM6 15h1v1H6zM11 15h1v1h-1zM12 15h1v1h-1zM15 15h1v1h-1zM18 15h1v1h-1zM21 15h1v1h-1zM23 15h1v1h-1zM25 15h1v1h-1zM27 15h1v1h-1zM28 15h1v1h-1zM29 15h1v1h-1zM30 15h1v1h-1zM35 15h1v1h-1zM36 15h1v1h-1zM38 15h1v1h-1zM39 15h1v1h-1zM40 15h1v1h-1zM4 16h1v1H4zM6 16h1v1H6zM7 16h1v1H7zM8 16h1v1H8zM9 16h1v1H9zM13 16h1v1h-1zM14 16h1v1h-1zM15 16h1v1h-1zM16 16h1v1h-1zM18 16h1v1h-1zM23 16h1v1h-1zM26 16h1v1h-1zM29 16h1v1h-1zM30 16h1v1h-1zM31 16h1v1h-1zM32 16h1v1h-1zM33 16h1v1h-1zM36 16h1v1h-1zM42 16h1v1h-1zM3 17h1v1H3zM4 17h1v1H4zM6 17h1v1H6zM9 17h1v1H9zM11 17h1v1h-1zM13 17h1v1h-1zM17 17h1v1h-1zM20 17h1v1h-1zM21 17h1v1h-1zM24 17h1v1h-1zM25 17h1v1h-1zM31 17h1v1h-1zM34 17h1v1h-1zM38 17h1v1h-1zM39 17h1v1h-1zM40 17h1v1h-1zM42 17h1v1h-1zM2 18h1v1H2zM3 18h1v1H3zM4 18h1v1H4zM6 18h1v1H6zM7 18h1v1H7zM8 18h1v1H8zM9 18h1v1H9zM11 18h1v1h-1zM12 18h1v1h-1zM15 18h1v1h-1zM21 18h1v1h-1zM22 18h1v1h-1zM26 18h1v1h-1zM28 18h1v1h-1zM29 18h1v1h-1zM30 18h1v1h-1zM32 18h1v1h-1zM33 18h1v1h-1zM34 18h1v1h-1zM38 18h1v1h-1zM39 18h1v1h-1zM40 18h1v1h-1zM4 19h1v1H4zM7 19h1v1H7zM9 19h1v1H9zM12 19h1v1h-1zM14 19h1v1h-1zM15 19h1v1h-1zM16 19h1v1h-1zM17 19h1v1h-1zM20 19h1v1h-1zM22 19h1v1h-1zM23 19h1v1h-1zM25 19h1v1h-1zM27 19h1v1h-1zM29 19h1v1h-1zM31 19h1v1h-1zM34 19h1v1h-1zM35 19h1v1h-1zM36 19h1v1h-1zM38 19h1v1h-1zM42 19h1v1h-1zM5 20h1v1H5zM7 20h1v1H7zM8 20h1v1H8zM10 20h1v1h-1zM11 20h1v1h-1zM12 20h1v1h-1zM13 20h1v1h-1zM17 20h1v1h-1zM18 20h1v1h-1zM21 20h1v1h-1zM25 20h1v1h-1zM29 20h1v1h-1zM30 20h1v1h-1zM32 20h1v1h-1zM34 20h1v1h-1zM35 20h1v1h-1zM37 20h1v1h-1zM42 20h1v1h-1zM3 21h1v1H3zM10 21h1v1h-1zM11 21h1v1h-1zM16 21h1v1h-1zM17 21h1v1h-1zM18 21h1v1h-1zM19 21h1v1h-1zM20 21h1v1h-1zM23 21h1v1h-1zM27 21h1v1h-1zM35 21h1v1h-1zM36 21h1v1h-1zM37 21h1v1h-1zM38 21h1v1h-1zM39 21h1v1h-1zM40 21h1v1h-1zM42 21h1v1h-1zM2 22h1v1H2zM3 22h1v1H3zM4 22h1v1H4zM5 22h1v1H5zM6 22h1v1H6zM7 22h1v1H7zM8 22h1v1H8zM9 22h1v1H9zM11 22h1v1h-1zM15 22h1v1h-1zM16 22h1v1h-1zM22 22h1v1h-1zM23 22h1v1h-1zM26 22h1v1h-1zM28 22h1v1h-1zM29 22h1v1h-1zM31 22h1v1h-1zM32 22h1v1h-1zM33 22h1v1h-1zM36 22h1v1h-1zM37 22h1v1h-1zM38 22h1v1h-1zM40 22h1v1h-1zM41 22h1v1h-1zM42 22h1v1h-1zM2 23h1v1H2zM4 23h1v1H4zM7 23h1v1H7zM9 23h1v1H9zM10 23h1v1h-1zM11 23h1v1h-1zM12 23h1v1h-1zM14 23h1v1h-1zM16 23h1v1h-1zM18 23h1v1h-1zM20 23h1v1h-1zM22 23h1v1h-1zM23 23h1v1h-1zM24 23h1v1h-1zM25 23h1v1h-1zM28 23h1v1h-1zM29 23h1v1h-1zM33 23h1v1h-1zM35 23h1v1h-1zM36 23h1v1h-1zM37 23h1v1h-1zM38 23h1v1h-1zM42 23h1v1h-1zM8 24h1v1H8zM9 24h1v1H9zM10 24h1v1h-1zM13 24h1v1h-1zM17 24h1v1h-1zM18 24h1v1h-1zM19 24h1v1h-1zM25 24h1v1h-1zM26 24h1v1h-1zM27 24h1v1h-1zM28 24h1v1h-1zM29 24h1v1h-1zM30 24h1v1h-1zM32 24h1v1h-1zM34 24h1v1h-1zM37 24h1v1h-1zM38 24h1v1h-1zM39 24h1v1h-1zM40 24h1v1h-1zM42 24h1v1h-1zM2 25h1v1H2zM3 25h1v1H3zM4 25h1v1H4zM5 25h1v1H5zM6 25h1v1H6zM10 25h1v1h-1zM11 25h1v1h-1zM13 25h1v1h-1zM14 25h1v1h-1zM16 25h1v1h-1zM18 25h1v1h-1zM19 25h1v1h-1zM24 25h1v1h-1zM27 25h1v1h-1zM28 25h1v1h-1zM31 25h1v1h-1zM32 25h1v1h-1zM33 25h1v1h-1zM35 25h1v1h-1zM38 25h1v1h-1zM2 26h1v1H2zM3 26h1v1H3zM4 26h1v1H4zM7 26h1v1H7zM8 26h1v1H8zM11 26h1v1h-1zM13 26h1v1h-1zM14 26h1v1h-1zM16 26h1v1h-1zM17 26h1v1h-1zM18 26h1v1h-1zM21 26h1v1h-1zM22 26h1v1h-1zM26 26h1v1h-1zM28 26h1v1h-1zM29 26h1v1h-1zM30 26h1v1h-1zM31 26h1v1h-1zM32 26h1v1h-1zM35 26h1v1h-1zM36 26h1v1h-1zM37 26h1v1h-1zM38 26h1v1h-1zM4 27h1v1H4zM6 27h1v1H6zM7 27h1v1H7zM11 27h1v1h-1zM12 27h1v1h-1zM15 27h1v1h-1zM17 27h1v1h-1zM18 27h1v1h-1zM28 27h1v1h-1zM29 27h1v1h-1zM31 27h1v1h-1zM32 27h1v1h-1zM36 27h1v1h-1zM37 27h1v1h-1zM3 28h1v1H3zM4 28h1v1H4zM5 28h1v1H5zM8 28h1v1H8zM9 28h1v1H9zM11 28h1v1h-1zM14 28h1v1h-1zM15 28h1v1h-1zM17 28h1v1h-1zM18 28h1v1h-1zM20 28h1v1h-1zM21 28h1v1h-1zM23 28h1v1h-1zM24 28h1v1h-1zM27 28h1v1h-1zM28 28h1v1h-1zM29 28h1v1h-1zM30 28h1v1h-1zM31 28h1v1h-1zM32 28h1v1h-1zM36 28h1v1h-1zM38 28h1v1h-1zM39 28h1v1h-1zM40 28h1v1h-1zM42 28h1v1h-1zM3 29h1v1H3zM5 29h1v1H5zM6 29h1v1H6zM7 29h1v1H7zM12 29h1v1h-1zM25 29h1v1h-1zM26 29h1v1h-1zM28 29h1v1h-1zM29 29h1v1h-1zM30 29h1v1h-1zM32 29h1v1h-1zM33 29h1v1h-1zM35 29h1v1h-1zM36 29h1v1h-1zM38 29h1v1h-1zM41 29h1v1h-1zM2 30h1v1H2zM3 30h1v1H3zM6 30h1v1H6zM7 30h1v1H7zM8 30h1v1H8zM9 30h1v1H9zM11 30h1v1h-1zM13 30h1v1h-1zM14 30h1v1h-1zM16 30h1v1h-1zM19 30h1v1h-1zM20 30h1v1h-1zM21 30h1v1h-1zM22 30h1v1h-1zM23 30h1v1h-1zM26 30h1v1h-1zM27 30h1v1h-1zM32 30h1v1h-1zM37 30h1v1h-1zM38 30h1v1h-1zM39 30h1v1h-1zM40 30h1v1h-1zM41 30h1v1h-1zM42 30h1v1h-1zM2 31h1v1H2zM4 31h1v1H4zM6 31h1v1H6zM10 31h1v1h-1zM13 31h1v1h-1zM15 31h1v1h-1zM16 31h1v1h-1zM19 31h1v1h-1zM22 31h1v1h-1zM23 31h1v1h-1zM26 31h1v1h-1zM27 31h1v1h-1zM29 31h1v1h-1zM31 31h1v1h-1zM32 31h1v1h-1zM33 31h1v1h-1zM35 31h1v1h-1zM36 31h1v1h-1zM38 31h1v1h-1zM40 31h1v1h-1zM41 31h1v1h-1zM2 32h1v1H2zM3 32h1v1H3zM5 32h1v1H5zM6 32h1v1H6zM8 32h1v1H8zM14 32h1v1h-1zM16 32h1v1h-1zM18 32h1v1h-1zM20 32h1v1h-1zM22 32h1v1h-1zM23 32h1v1h-1zM24 32h1v1h-1zM25 32h1v1h-1zM26 32h1v1h-1zM27 32h1v1h-1zM28 32h1v1h-1zM29 32h1v1h-1zM30 32h1v1h-1zM32 32h1v1h-1zM33 32h1v1h-1zM34 32h1v1h-1zM35 32h1v1h-1zM36 32h1v1h-1zM38 32h1v1h-1zM39 32h1v1h-1zM41 32h1v1h-1zM42 32h1v1h-1zM2 33h1v1H2zM3 33h1v1H3zM4 33h1v1H4zM5 33h1v1H5zM6 33h1v1H6zM11 33h1v1h-1zM13 33h1v1h-1zM15 33h1v1h-1zM17 33h1v1h-1zM18 33h1v1h-1zM20 33h1v1h-1zM25 33h1v1h-1zM26 33h1v1h-1zM27 33h1v1h-1zM32 33h1v1h-1zM33 33h1v1h-1zM36 33h1v1h-1zM38 33h1v1h-1zM39 33h1v1h-1zM40 33h1v1h-1zM41 33h1v1h-1zM2 34h1v1H2zM3 34h1v1H3zM4 34h1v1H4zM7 34h1v1H7zM8 34h1v1H8zM9 34h1v1H9zM10 34h1v1h-1zM11 34h1v1h-1zM13 34h1v1h-1zM15 34h1v1h-1zM16 34h1v1h-1zM18 34h1v1h-1zM19 34h1v1h-1zM27 34h1v1h-1zM28 34h1v1h-1zM29 34h1v1h-1zM34 34h1v1h-1zM35 34h1v1h-1zM36 34h1v1h-1zM37 34h1v1h-1zM38 34h1v1h-1zM40 34h1v1h-1zM42 34h1v1h-1zM10 35h1v1h-1zM12 35h1v1h-1zM15 35h1v1h-1zM16 35h1v1h-1zM17 35h1v1h-1zM19 35h1v1h-1zM20 35h1v1h-1zM21 35h1v1h-1zM23 35h1v1h-1zM24 35h1v1h-1zM25 35h1v1h-1zM26 35h1v1h-1zM27 35h1v1h-1zM29 35h1v1h-1zM30 35h1v1h-1zM31 35h1v1h-1zM33 35h1v1h-1zM34 35h1v1h-1zM38 35h1v1h-1zM39 35h1v1h-1zM41 35h1v1h-1zM2 36h1v1H2zM3 36h1v1H3zM4 36h1v1H4zM5 36h1v1H5zM6 36h1v1H6zM7 36h1v1H7zM8 36h1v1H8zM11 36h1v1h-1zM13 36h1v1h-1zM15 36h1v1h-1zM17 36h1v1h-1zM18 36h1v1h-1zM22 36h1v1h-1zM24 36h1v1h-1zM25 36h1v1h-1zM27 36h1v1h-1zM30 36h1v1h-1zM34 36h1v1h-1zM36 36h1v1h-1zM38 36h1v1h-1zM39 36h1v1h-1zM41 36h1v1h-1zM2 37h1v1H2zM8 37h1v1H8zM15 37h1v1h-1zM17 37h1v1h-1zM20 37h1v1h-1zM22 37h1v1h-1zM23 37h1v1h-1zM24 37h1v1h-1zM25 37h1v1h-1zM26 37h1v1h-1zM29 37h1v1h-1zM31 37h1v1h-1zM33 37h1v1h-1zM34 37h1v1h-1zM38 37h1v1h-1zM39 37h1v1h-1zM40 37h1v1h-1zM2 38h1v1H2zM4 38h1v1H4zM5 38h1v1H5zM6 38h1v1H6zM8 38h1v1H8zM10 38h1v1h-1zM11 38h1v1h-1zM15 38h1v1h-1zM19 38h1v1h-1zM23 38h1v1h-1zM29 38h1v1h-1zM32 38h1v1h-1zM34 38h1v1h-1zM35 38h1v1h-1zM36 38h1v1h-1zM37 38h1v1h-1zM38 38h1v1h-1zM40 38h1v1h-1zM41 38h1v1h-1zM2 39h1v1H2zM4 39h1v1H4zM5 39h1v1H5zM6 39h1v1H6zM8 39h1v1H8zM10 39h1v1h-1zM12 39h1v1h-1zM14 39h1v1h-1zM16 39h1v1h-1zM19 39h1v1h-1zM20 39h1v1h-1zM21 39h1v1h-1zM22 39h1v1h-1zM25 39h1v1h-1zM27 39h1v1h-1zM28 39h1v1h-1zM29 39h1v1h-1zM30 39h1v1h-1zM32 39h1v1h-1zM33 39h1v1h-1zM34 39h1v1h-1zM38 39h1v1h-1zM39 39h1v1h-1zM2 40h1v1H2zM4 40h1v1H4zM5 40h1v1H5zM6 40h1v1H6zM8 40h1v1H8zM11 40h1v1h-1zM16 40h1v1h-1zM17 40h1v1h-1zM21 40h1v1h-1zM22 40h1v1h-1zM23 40h1v1h-1zM27 40h1v1h-1zM28 40h1v1h-1zM29 40h1v1h-1zM31 40h1v1h-1zM32 40h1v1h-1zM35 40h1v1h-1zM36 40h1v1h-1zM37 40h1v1h-1zM38 40h1v1h-1zM40 40h1v1h-1zM41 40h1v1h-1zM42 40h1v1h-1zM2 41h1v1H2zM8 41h1v1H8zM10 41h1v1h-1zM14 41h1v1h-1zM16 41h1v1h-1zM18 41h1v1h-1zM22 41h1v1h-1zM26 41h1v1h-1zM28 41h1v1h-1zM29 41h1v1h-1zM32 41h1v1h-1zM34 41h1v1h-1zM36 41h1v1h-1zM37 41h1v1h-1zM38 41h1v1h-1zM39 41h1v1h-1zM40 41h1v1h-1zM2 42h1v1H2zM3 42h1v1H3zM4 42h1v1H4zM5 42h1v1H5zM6 42h1v1H6zM7 42h1v1H7zM8 42h1v1H8zM10 42h1v1h-1zM13 42h1v1h-1zM14 42h1v1h-1zM17 42h1v1h-1zM22 42h1v1h-1zM24 42h1v1h-1zM25 42h1v1h-1zM26 42h1v1h-1zM30 42h1v1h-1zM33 42h1v1h-1zM34 42h1v1h-1zM35 42h1v1h-1zM36 42h1v1h-1zM38 42h1v1h-1zM40 42h1v1h-1zM41 42h1v1h-1z"/>
	</symbol>

	<symbol id="qr-wechat" viewBox="0 0 90 90" width="90" height="90" >
		<path fill="#fff" d="M0 0h33v33H0z"/>
			<path d="M2 2h1v1H2zM3 2h1v1H3zM4 2h1v1H4zM5 2h1v1H5zM6 2h1v1H6zM7 2h1v1H7zM8 2h1v1H8zM12 2h1v1h-1zM17 2h1v1h-1zM18 2h1v1h-1zM24 2h1v1h-1zM25 2h1v1h-1zM26 2h1v1h-1zM27 2h1v1h-1zM28 2h1v1h-1zM29 2h1v1h-1zM30 2h1v1h-1zM2 3h1v1H2zM8 3h1v1H8zM11 3h1v1h-1zM15 3h1v1h-1zM17 3h1v1h-1zM18 3h1v1h-1zM20 3h1v1h-1zM21 3h1v1h-1zM24 3h1v1h-1zM30 3h1v1h-1zM2 4h1v1H2zM4 4h1v1H4zM5 4h1v1H5zM6 4h1v1H6zM8 4h1v1H8zM10 4h1v1h-1zM13 4h1v1h-1zM16 4h1v1h-1zM20 4h1v1h-1zM21 4h1v1h-1zM22 4h1v1h-1zM24 4h1v1h-1zM26 4h1v1h-1zM27 4h1v1h-1zM28 4h1v1h-1zM30 4h1v1h-1zM2 5h1v1H2zM4 5h1v1H4zM5 5h1v1H5zM6 5h1v1H6zM8 5h1v1H8zM11 5h1v1h-1zM14 5h1v1h-1zM16 5h1v1h-1zM17 5h1v1h-1zM21 5h1v1h-1zM24 5h1v1h-1zM26 5h1v1h-1zM27 5h1v1h-1zM28 5h1v1h-1zM30 5h1v1h-1zM2 6h1v1H2zM4 6h1v1H4zM5 6h1v1H5zM6 6h1v1H6zM8 6h1v1H8zM11 6h1v1h-1zM14 6h1v1h-1zM15 6h1v1h-1zM16 6h1v1h-1zM17 6h1v1h-1zM19 6h1v1h-1zM24 6h1v1h-1zM26 6h1v1h-1zM27 6h1v1h-1zM28 6h1v1h-1zM30 6h1v1h-1zM2 7h1v1H2zM8 7h1v1H8zM12 7h1v1h-1zM13 7h1v1h-1zM14 7h1v1h-1zM17 7h1v1h-1zM18 7h1v1h-1zM19 7h1v1h-1zM21 7h1v1h-1zM22 7h1v1h-1zM24 7h1v1h-1zM30 7h1v1h-1zM2 8h1v1H2zM3 8h1v1H3zM4 8h1v1H4zM5 8h1v1H5zM6 8h1v1H6zM7 8h1v1H7zM8 8h1v1H8zM10 8h1v1h-1zM12 8h1v1h-1zM14 8h1v1h-1zM16 8h1v1h-1zM18 8h1v1h-1zM20 8h1v1h-1zM22 8h1v1h-1zM24 8h1v1h-1zM25 8h1v1h-1zM26 8h1v1h-1zM27 8h1v1h-1zM28 8h1v1h-1zM29 8h1v1h-1zM30 8h1v1h-1zM10 9h1v1h-1zM13 9h1v1h-1zM15 9h1v1h-1zM17 9h1v1h-1zM19 9h1v1h-1zM20 9h1v1h-1zM21 9h1v1h-1zM2 10h1v1H2zM3 10h1v1H3zM4 10h1v1H4zM6 10h1v1H6zM7 10h1v1H7zM8 10h1v1H8zM9 10h1v1H9zM10 10h1v1h-1zM14 10h1v1h-1zM21 10h1v1h-1zM22 10h1v1h-1zM23 10h1v1h-1zM24 10h1v1h-1zM28 10h1v1h-1zM2 11h1v1H2zM5 11h1v1H5zM6 11h1v1H6zM9 11h1v1H9zM10 11h1v1h-1zM11 11h1v1h-1zM13 11h1v1h-1zM14 11h1v1h-1zM21 11h1v1h-1zM22 11h1v1h-1zM23 11h1v1h-1zM24 11h1v1h-1zM27 11h1v1h-1zM30 11h1v1h-1zM7 12h1v1H7zM8 12h1v1H8zM10 12h1v1h-1zM12 12h1v1h-1zM13 12h1v1h-1zM14 12h1v1h-1zM18 12h1v1h-1zM20 12h1v1h-1zM25 12h1v1h-1zM28 12h1v1h-1zM29 12h1v1h-1zM30 12h1v1h-1zM2 13h1v1H2zM3 13h1v1H3zM7 13h1v1H7zM10 13h1v1h-1zM11 13h1v1h-1zM12 13h1v1h-1zM14 13h1v1h-1zM15 13h1v1h-1zM18 13h1v1h-1zM19 13h1v1h-1zM22 13h1v1h-1zM23 13h1v1h-1zM25 13h1v1h-1zM27 13h1v1h-1zM29 13h1v1h-1zM2 14h1v1H2zM5 14h1v1H5zM8 14h1v1H8zM10 14h1v1h-1zM12 14h1v1h-1zM13 14h1v1h-1zM19 14h1v1h-1zM21 14h1v1h-1zM22 14h1v1h-1zM23 14h1v1h-1zM24 14h1v1h-1zM27 14h1v1h-1zM29 14h1v1h-1zM30 14h1v1h-1zM3 15h1v1H3zM4 15h1v1H4zM5 15h1v1H5zM6 15h1v1H6zM10 15h1v1h-1zM12 15h1v1h-1zM13 15h1v1h-1zM15 15h1v1h-1zM16 15h1v1h-1zM18 15h1v1h-1zM20 15h1v1h-1zM23 15h1v1h-1zM24 15h1v1h-1zM27 15h1v1h-1zM28 15h1v1h-1zM30 15h1v1h-1zM2 16h1v1H2zM3 16h1v1H3zM5 16h1v1H5zM8 16h1v1H8zM9 16h1v1H9zM16 16h1v1h-1zM19 16h1v1h-1zM20 16h1v1h-1zM24 16h1v1h-1zM25 16h1v1h-1zM26 16h1v1h-1zM29 16h1v1h-1zM30 16h1v1h-1zM10 17h1v1h-1zM13 17h1v1h-1zM15 17h1v1h-1zM17 17h1v1h-1zM19 17h1v1h-1zM21 17h1v1h-1zM22 17h1v1h-1zM27 17h1v1h-1zM29 17h1v1h-1zM2 18h1v1H2zM5 18h1v1H5zM6 18h1v1H6zM8 18h1v1H8zM9 18h1v1H9zM11 18h1v1h-1zM14 18h1v1h-1zM15 18h1v1h-1zM17 18h1v1h-1zM19 18h1v1h-1zM20 18h1v1h-1zM21 18h1v1h-1zM22 18h1v1h-1zM23 18h1v1h-1zM24 18h1v1h-1zM29 18h1v1h-1zM30 18h1v1h-1zM3 19h1v1H3zM9 19h1v1H9zM12 19h1v1h-1zM13 19h1v1h-1zM14 19h1v1h-1zM15 19h1v1h-1zM19 19h1v1h-1zM20 19h1v1h-1zM22 19h1v1h-1zM24 19h1v1h-1zM28 19h1v1h-1zM30 19h1v1h-1zM2 20h1v1H2zM8 20h1v1H8zM10 20h1v1h-1zM11 20h1v1h-1zM12 20h1v1h-1zM13 20h1v1h-1zM14 20h1v1h-1zM15 20h1v1h-1zM23 20h1v1h-1zM24 20h1v1h-1zM25 20h1v1h-1zM27 20h1v1h-1zM29 20h1v1h-1zM30 20h1v1h-1zM3 21h1v1H3zM6 21h1v1H6zM7 21h1v1H7zM9 21h1v1H9zM10 21h1v1h-1zM11 21h1v1h-1zM14 21h1v1h-1zM15 21h1v1h-1zM17 21h1v1h-1zM19 21h1v1h-1zM20 21h1v1h-1zM22 21h1v1h-1zM23 21h1v1h-1zM27 21h1v1h-1zM29 21h1v1h-1zM2 22h1v1H2zM4 22h1v1H4zM5 22h1v1H5zM7 22h1v1H7zM8 22h1v1H8zM10 22h1v1h-1zM11 22h1v1h-1zM13 22h1v1h-1zM17 22h1v1h-1zM21 22h1v1h-1zM22 22h1v1h-1zM23 22h1v1h-1zM24 22h1v1h-1zM25 22h1v1h-1zM26 22h1v1h-1zM10 23h1v1h-1zM12 23h1v1h-1zM13 23h1v1h-1zM16 23h1v1h-1zM17 23h1v1h-1zM18 23h1v1h-1zM19 23h1v1h-1zM21 23h1v1h-1zM22 23h1v1h-1zM26 23h1v1h-1zM28 23h1v1h-1zM29 23h1v1h-1zM30 23h1v1h-1zM2 24h1v1H2zM3 24h1v1H3zM4 24h1v1H4zM5 24h1v1H5zM6 24h1v1H6zM7 24h1v1H7zM8 24h1v1H8zM10 24h1v1h-1zM11 24h1v1h-1zM15 24h1v1h-1zM16 24h1v1h-1zM21 24h1v1h-1zM22 24h1v1h-1zM24 24h1v1h-1zM26 24h1v1h-1zM27 24h1v1h-1zM29 24h1v1h-1zM30 24h1v1h-1zM2 25h1v1H2zM8 25h1v1H8zM10 25h1v1h-1zM13 25h1v1h-1zM15 25h1v1h-1zM17 25h1v1h-1zM19 25h1v1h-1zM22 25h1v1h-1zM26 25h1v1h-1zM30 25h1v1h-1zM2 26h1v1H2zM4 26h1v1H4zM5 26h1v1H5zM6 26h1v1H6zM8 26h1v1H8zM10 26h1v1h-1zM11 26h1v1h-1zM12 26h1v1h-1zM14 26h1v1h-1zM15 26h1v1h-1zM17 26h1v1h-1zM18 26h1v1h-1zM22 26h1v1h-1zM23 26h1v1h-1zM24 26h1v1h-1zM25 26h1v1h-1zM26 26h1v1h-1zM27 26h1v1h-1zM2 27h1v1H2zM4 27h1v1H4zM5 27h1v1H5zM6 27h1v1H6zM8 27h1v1H8zM11 27h1v1h-1zM13 27h1v1h-1zM14 27h1v1h-1zM15 27h1v1h-1zM18 27h1v1h-1zM19 27h1v1h-1zM22 27h1v1h-1zM23 27h1v1h-1zM26 27h1v1h-1zM29 27h1v1h-1zM30 27h1v1h-1zM2 28h1v1H2zM4 28h1v1H4zM5 28h1v1H5zM6 28h1v1H6zM8 28h1v1H8zM10 28h1v1h-1zM11 28h1v1h-1zM13 28h1v1h-1zM14 28h1v1h-1zM15 28h1v1h-1zM22 28h1v1h-1zM25 28h1v1h-1zM26 28h1v1h-1zM27 28h1v1h-1zM28 28h1v1h-1zM30 28h1v1h-1zM2 29h1v1H2zM8 29h1v1H8zM10 29h1v1h-1zM14 29h1v1h-1zM15 29h1v1h-1zM16 29h1v1h-1zM18 29h1v1h-1zM19 29h1v1h-1zM20 29h1v1h-1zM21 29h1v1h-1zM22 29h1v1h-1zM24 29h1v1h-1zM25 29h1v1h-1zM26 29h1v1h-1zM27 29h1v1h-1zM29 29h1v1h-1zM2 30h1v1H2zM3 30h1v1H3zM4 30h1v1H4zM5 30h1v1H5zM6 30h1v1H6zM7 30h1v1H7zM8 30h1v1H8zM10 30h1v1h-1zM13 30h1v1h-1zM14 30h1v1h-1zM16 30h1v1h-1zM17 30h1v1h-1zM21 30h1v1h-1zM22 30h1v1h-1zM25 30h1v1h-1zM29 30h1v1h-1zM30 30h1v1h-1z"/>
 </symbol>
</svg>
