<!-- Generated by IcoMoon.io -->
<svg version="1.1" xmlns="http://www.w3.org/2000/svg" width="16" height="16" viewBox="0 0 16 16">
<title>facebook</title>
<path fill="#3b5998" d="M15.117 0h-14.235c-0.487 0-0.883 0.395-0.883 0.883v14.235c0 0.488 0.395 0.883 0.883 0.883h7.663v-6.196h-2.086v-2.414h2.086v-1.783c0-2.066 1.263-3.19 3.106-3.19 0.883 0 1.643 0.065 1.864 0.094v2.16h-1.281c-1 0-1.195 0.481-1.195 1.181v1.541h2.389l-0.31 2.42h-2.079v6.188h4.077c0.489 0 0.883-0.395 0.883-0.883v-14.235c0-0.487-0.395-0.883-0.883-0.883z"></path>
</svg>
