<!-- Generated by IcoMoon.io -->
<svg version="1.1" xmlns="http://www.w3.org/2000/svg" width="16" height="16" viewBox="0 0 16 16">
<title>mail</title>
<path d="M16 6.339v7.089c0 0.786-0.643 1.429-1.429 1.429h-13.143c-0.786 0-1.429-0.643-1.429-1.429v-7.089c0.268 0.295 0.571 0.554 0.902 0.777 1.482 1.009 2.982 2.018 4.438 3.080 0.75 0.554 1.679 1.232 2.652 1.232h0.018c0.973 0 1.902-0.679 2.652-1.232 1.455-1.054 2.955-2.071 4.446-3.080 0.321-0.223 0.625-0.482 0.893-0.777zM16 3.714c0 1-0.741 1.902-1.527 2.446-1.393 0.964-2.795 1.929-4.179 2.902-0.58 0.402-1.563 1.223-2.286 1.223h-0.018c-0.723 0-1.705-0.821-2.286-1.223-1.384-0.973-2.786-1.938-4.17-2.902-0.634-0.429-1.536-1.438-1.536-2.25 0-0.875 0.473-1.625 1.429-1.625h13.143c0.777 0 1.429 0.643 1.429 1.429z"></path>
</svg>
