<!-- Generated by IcoMoon.io -->
<svg version="1.1" xmlns="http://www.w3.org/2000/svg" width="16" height="16" viewBox="0 0 16 16">
<title>monzo</title>
<path d="M7.993 11.507h0.007l3.953-3.947v7.36c0.006 0.161 0.138 0.289 0.3 0.289 0.080 0 0.153-0.032 0.207-0.083l-0 0 3.32-3.313c0.132-0.134 0.213-0.317 0.213-0.52 0-0.005-0-0.009-0-0.014l0 0.001v-7.753l0.007-0.007-2.653-2.647c-0.053-0.055-0.128-0.089-0.21-0.089s-0.157 0.034-0.21 0.088l-0 0-4.927 4.92-4.94-4.933c-0.053-0.055-0.128-0.089-0.21-0.089s-0.157 0.034-0.21 0.088l-0 0-2.64 2.66v7.773c-0 0.002-0 0.004-0 0.007 0 0.203 0.081 0.386 0.213 0.52l-0-0 3.313 3.32c0.054 0.051 0.127 0.083 0.207 0.083 0.164 0 0.298-0.132 0.3-0.296v-0l0.007-7.373 3.953 3.96z"></path>
</svg>
