<!-- Generated by IcoMoon.io -->
<svg version="1.1" xmlns="http://www.w3.org/2000/svg" width="16" height="16" viewBox="0 0 16 16">
<title>telegram</title>
<path fill="#2ca5e0" d="M6.019 13.891c-0.476 0-0.395-0.181-0.559-0.633l-1.402-4.613 10.785-6.399z"></path>
<path fill="#2ca5e0" d="M6.019 13.891c0.368 0 0.53-0.168 0.737-0.369l1.961-1.905-2.447-1.476z"></path>
<path fill="#2ca5e0" d="M6.269 10.142l5.927 4.379c0.677 0.373 1.165 0.181 1.333-0.628l2.413-11.369c0.248-0.991-0.376-1.439-1.023-1.147l-14.169 5.465c-0.967 0.388-0.962 0.928-0.176 1.169l3.637 1.133 8.416-5.309c0.397-0.24 0.762-0.111 0.463 0.155z"></path>
</svg>
