<!-- Generated by IcoMoon.io -->
<svg version="1.1" xmlns="http://www.w3.org/2000/svg" width="16" height="16" viewBox="0 0 16 16">
<title>xmpp</title>
<path d="M0 2.13c0.1 3.83 3.24 7.8 7.020 10-0.87 0.68-1.84 1.2-2.9 1.46v0.18c1.3-0.12 2.6-0.5 3.87-1.1 0.42 0.2 0.85 0.38 1.28 0.54 0.43 0.17 0.88 0.3 1.33 0.4 0.5 0.13 0.97 0.2 1.44 0.25v-0.050h0.030v-0.14c-1.12-0.3-2.14-0.84-3.040-1.56 3.77-2.17 6.87-6.11 6.97-9.99l-2.4 0.94-2.47 0.73v0.36c0 2.28-1.15 5.060-3.080 7.050-1.87-1.97-3-4.7-3-6.95 0-0.12 0-0.24 0.020-0.37l-2.3-0.68-2.77-1.070z"></path>
</svg>
