<!-- Generated by IcoMoon.io -->
<svg version="1.1" xmlns="http://www.w3.org/2000/svg" width="256" height="256" viewBox="0 0 256 256">
<title>youtube</title>
<path fill="#f00" d="M250.613 66.187c-3.091-10.827-11.445-19.18-22.046-22.216l-0.226-0.056c-19.947-5.344-100.224-5.344-100.224-5.344s-80.075-0.107-100.224 5.344c-10.827 3.091-19.18 11.445-22.216 22.046l-0.056 0.226c-3.543 18.245-5.57 39.226-5.57 60.681 0 0.436 0.001 0.871 0.003 1.306l-0-0.067c-0.001 0.299-0.002 0.654-0.002 1.009 0 21.453 2.027 42.433 5.899 62.758l-0.33-2.082c3.091 10.827 11.445 19.18 22.046 22.216l0.226 0.055c19.925 5.355 100.224 5.355 100.224 5.355s80.064 0 100.224-5.355c10.827-3.091 19.18-11.445 22.216-22.046l0.055-0.226c3.398-17.868 5.341-38.422 5.341-59.429 0-0.793-0.003-1.586-0.008-2.378l0.001 0.122c0.006-0.738 0.009-1.61 0.009-2.482 0-21.010-1.944-41.567-5.662-61.499l0.32 2.061zM102.496 166.411v-76.725l66.816 38.421z"></path>
</svg>
