<?xml version="1.0" encoding="UTF-8"?>
<svg width="80" height="15" version="1.1" viewBox="0 0 80 15" xmlns="http://www.w3.org/2000/svg">
    <rect width="80" height="15" fill="#666"/>
    <rect x="1" y="1" width="78" height="13" fill="#fff"/>
    <rect x="16" y="2" width="62" height="11" fill="#666"/>
    <g fill="#fff">
        <path d="m27 5v1h2v-1zm2 1v3h1v-3zm0 3h-2v1h2zm-2 0v-3h-1v3z"/>
        <path d="m20 5h1v1h1v1h1v1h1v-3h1v5h-1v-1h-1v-1h-1v-1h-1v3h-1z"/>
        <rect x="-1" y="259.03" width="78" height="13"/>
        <path d="m70 5v5h3v-1h-2v-3h2v-1zm3 1v3h1v-3z"/>
        <path d="m66 5h3v1h-2v1h2v1h-2v1h2v1h-3z"/>
        <circle cx="7.5" cy="7.5" r="5.5" stroke="#666" style="paint-order:markers fill stroke"/>
    </g>
    <g fill="#666">
        <rect transform="rotate(-45)" x="-6" y="10" width="11" height="1"/>
        <path d="m9 5h3v1h-3v1h2v1h1v1h-1v1h-3v-1h3v-1h-2v-1h-1v-1h1"/>
        <path d="m6 5v4h1v-4zm0 4h-2v1h2zm-2 0v-1h-1v1z"/>
    </g>
    <g fill="#fff">
        <path d="m40 5h3v1h-3v1h2v1h1v1h-1v1h-3v-1h3v-1h-2v-1h-1v-1h1"/>
        <path d="m37 5v4h1v-4zm0 4h-2v1h2zm-2 0v-1h-1v1z"/>
        <path d="m57 5h3v1h-2v1h2v1h-2v1h2v1h-3z"/>
        <path d="m61 5v5h3v-1h-2v-3h2v-1zm3 1v3h1v-3z"/>
        <path d="m53 5h3v1h-2v1h2v1h-2v1h2v1h-3z"/>
        <path d="m47 5h1v1h1v1h1v1h1v-3h1v5h-1v-1h-1v-1h-1v-1h-1v3h-1z"/>
    </g>
</svg>
