<!-- Generated by IcoMoon.io -->
<svg version="1.1" xmlns="http://www.w3.org/2000/svg" width="17" height="16" viewBox="0 0 17 16">
<title>following</title>
<path d="M5.295 8c-0.929 0.027-1.768 0.429-2.366 1.143h-1.196c-0.893 0-1.732-0.429-1.732-1.42 0-0.723-0.027-3.152 1.107-3.152 0.188 0 1.116 0.759 2.321 0.759 0.411 0 0.804-0.071 1.187-0.205-0.027 0.196-0.045 0.393-0.045 0.589 0 0.813 0.259 1.616 0.723 2.286zM14.857 13.688c0 1.446-0.955 2.313-2.384 2.313h-7.804c-1.429 0-2.384-0.866-2.384-2.313 0-2.018 0.473-5.116 3.089-5.116 0.304 0 1.411 1.241 3.196 1.241s2.893-1.241 3.196-1.241c2.616 0 3.089 3.098 3.089 5.116zM5.714 2.286c0 1.259-1.027 2.286-2.286 2.286s-2.286-1.027-2.286-2.286 1.027-2.286 2.286-2.286 2.286 1.027 2.286 2.286zM12 5.714c0 1.893-1.536 3.429-3.429 3.429s-3.429-1.536-3.429-3.429 1.536-3.429 3.429-3.429 3.429 1.536 3.429 3.429zM17.143 7.723c0 0.991-0.839 1.42-1.732 1.42h-1.196c-0.598-0.714-1.438-1.116-2.366-1.143 0.464-0.67 0.723-1.473 0.723-2.286 0-0.196-0.018-0.393-0.045-0.589 0.384 0.134 0.777 0.205 1.188 0.205 1.205 0 2.134-0.759 2.321-0.759 1.134 0 1.107 2.429 1.107 3.152zM16 2.286c0 1.259-1.027 2.286-2.286 2.286s-2.286-1.027-2.286-2.286 1.027-2.286 2.286-2.286 2.286 1.027 2.286 2.286z"></path>
</svg>
