<svg version="1.1" xmlns="http://www.w3.org/2000/svg" xmlns:xlink="http://www.w3.org/1999/xlink">
    <symbol id="icon-github" viewBox="0 0 16 16">
        <path d="M8 0.198c-4.42 0-8 3.582-8 8 0 3.535 2.292 6.533 5.47 7.59 0.4 0.075 0.547-0.172 0.547-0.385 0-0.19-0.007-0.693-0.010-1.36-2.225 0.483-2.695-1.073-2.695-1.073-0.364-0.923-0.89-1.17-0.89-1.17-0.725-0.496 0.056-0.486 0.056-0.486 0.803 0.056 1.225 0.824 1.225 0.824 0.713 1.223 1.873 0.87 2.33 0.665 0.072-0.517 0.278-0.87 0.507-1.070-1.777-0.2-3.644-0.888-3.644-3.953 0-0.873 0.31-1.587 0.823-2.147-0.090-0.202-0.36-1.015 0.070-2.117 0 0 0.67-0.215 2.2 0.82 0.64-0.178 1.32-0.266 2-0.27 0.68 0.004 1.36 0.092 2 0.27 1.52-1.035 2.19-0.82 2.19-0.82 0.43 1.102 0.16 1.915 0.080 2.117 0.51 0.56 0.82 1.273 0.82 2.147 0 3.073-1.87 3.75-3.65 3.947 0.28 0.24 0.54 0.731 0.54 1.48 0 1.071-0.010 1.931-0.010 2.191 0 0.21 0.14 0.46 0.55 0.38 3.201-1.049 5.491-4.049 5.491-7.579 0-4.418-3.582-8-8-8z"></path>
    </symbol>
    <symbol id="icon-cash" viewBox="0 0 16 16">
        <path d="M15.727 2.313c-0.351-0.948-1.086-1.682-2.010-2.026l-0.024-0.008c-0.873-0.28-1.667-0.28-3.28-0.28h-4.84c-1.6 0-2.407 0-3.267 0.267-0.949 0.353-1.683 1.090-2.026 2.016l-0.008 0.024c-0.273 0.867-0.273 1.667-0.273 3.267v4.847c0 1.607 0 2.4 0.267 3.267 0.351 0.948 1.086 1.682 2.010 2.026l0.023 0.008c0.867 0.273 1.667 0.273 3.267 0.273h4.853c1.607 0 2.407 0 3.267-0.267 0.952-0.351 1.689-1.088 2.032-2.016l0.008-0.024c0.273-0.867 0.273-1.667 0.273-3.267v-4.833c0-1.607 0-2.407-0.273-3.273zM11.613 5.4l-0.62 0.62c-0.059 0.055-0.139 0.089-0.227 0.089-0.084 0-0.161-0.031-0.22-0.083l0 0c-0.575-0.488-1.326-0.786-2.146-0.787h-0c-0.647 0-1.293 0.213-1.293 0.807 0 0.6 0.693 0.8 1.493 1.1 1.4 0.467 2.56 1.053 2.56 2.427 0 1.493-1.16 2.52-3.053 2.633l-0.173 0.8c-0.032 0.15-0.163 0.26-0.32 0.26-0 0-0 0-0 0h-1.193l-0.060-0.007c-0.15-0.035-0.26-0.167-0.26-0.325 0-0.024 0.003-0.048 0.007-0.070l-0 0.002 0.187-0.847c-0.75-0.192-1.397-0.556-1.922-1.049l0.002 0.002v-0.007c-0.058-0.058-0.094-0.138-0.094-0.227s0.036-0.169 0.094-0.227l0-0 0.667-0.647c0.058-0.055 0.137-0.088 0.223-0.088s0.165 0.034 0.224 0.088l-0-0c0.607 0.573 1.42 0.893 2.26 0.88 0.867 0 1.447-0.367 1.447-0.947s-0.587-0.733-1.693-1.147c-1.173-0.42-2.287-1.013-2.287-2.4 0-1.613 1.34-2.4 2.927-2.473l0.167-0.82c0.032-0.146 0.16-0.253 0.313-0.253 0.002 0 0.005 0 0.007 0h1.186l0.067 0.007c0.173 0.040 0.287 0.207 0.247 0.38l-0.18 0.913c0.6 0.2 1.167 0.513 1.653 0.927l0.013 0.013c0.127 0.133 0.127 0.333 0 0.453z"></path>
    </symbol>
    <symbol id="icon-paypal" viewBox="0 0 16 16">
        <path d="M4.605 16h-2.069c-0.443 0-0.724-0.353-0.624-0.787l0.099-0.449h1.381c0.444 0 0.891-0.355 0.988-0.788l0.709-3.061c0.1-0.432 0.544-0.787 0.987-0.787h0.589c2.526 0 4.489-0.519 5.893-1.56s2.107-2.4 2.107-4.090c0-0.75-0.13-1.37-0.392-1.859 0-0.011-0.011-0.021-0.011-0.031l0.090 0.050c0.5 0.31 0.88 0.709 1.141 1.209 0.269 0.5 0.399 1.12 0.399 1.861 0 1.69-0.699 3.049-2.109 4.090-1.4 1.030-3.37 1.549-5.889 1.549h-0.6c-0.44 0-0.889 0.35-0.989 0.791l-0.71 3.070c-0.099 0.43-0.54 0.78-0.98 0.78l-0.008 0.012zM2.821 14.203h-2.070c-0.442 0-0.723-0.353-0.624-0.787l2.915-12.629c0.101-0.435 0.543-0.788 0.987-0.788h4.31c0.93 0 1.739 0.065 2.432 0.193 0.69 0.126 1.28 0.346 1.789 0.66 0.491 0.31 0.881 0.715 1.131 1.212 0.259 0.499 0.389 1.12 0.389 1.865 0 1.69-0.701 3.049-2.109 4.079-1.4 1.041-3.371 1.551-5.891 1.551h-0.589c-0.44 0-0.885 0.349-0.985 0.779l-0.707 3.059c-0.099 0.431-0.545 0.781-0.99 0.781l0.011 0.024zM7.785 2.624h-0.676c-0.444 0-0.888 0.353-0.987 0.785l-0.62 2.68c-0.1 0.432 0.18 0.786 0.62 0.786h0.511c1.109 0 1.98-0.229 2.6-0.681 0.619-0.457 0.93-1.103 0.93-1.941 0-0.553-0.201-0.963-0.6-1.227-0.4-0.269-1-0.403-1.791-0.403l0.013 0.001z"></path>
    </symbol>
    <symbol id="icon-monzo" viewBox="0 0 16 16">
        <path d="M7.993 11.507h0.007l3.953-3.947v7.36c0.006 0.161 0.138 0.289 0.3 0.289 0.080 0 0.153-0.032 0.207-0.083l-0 0 3.32-3.313c0.132-0.134 0.213-0.317 0.213-0.52 0-0.005-0-0.009-0-0.014l0 0.001v-7.753l0.007-0.007-2.653-2.647c-0.053-0.055-0.128-0.089-0.21-0.089s-0.157 0.034-0.21 0.088l-0 0-4.927 4.92-4.94-4.933c-0.053-0.055-0.128-0.089-0.21-0.089s-0.157 0.034-0.21 0.088l-0 0-2.64 2.66v7.773c-0 0.002-0 0.004-0 0.007 0 0.203 0.081 0.386 0.213 0.52l-0-0 3.313 3.32c0.054 0.051 0.127 0.083 0.207 0.083 0.164 0 0.298-0.132 0.3-0.296v-0l0.007-7.373 3.953 3.96z"></path>
    </symbol>
    <symbol id="icon-lens" viewBox="0 0 16 16">
        <path d="M8 4c-2.209 0-4 1.791-4 4s1.791 4 4 4 4-1.791 4-4-1.791-4-4-4zM8 11c-1.657 0-3-1.344-3-3s1.343-3 3-3 3 1.343 3 3-1.344 3-3 3zM8 0c-4.418 0-8 3.582-8 8s3.582 8 8 8 8-3.582 8-8-3.582-8-8-8zM8 14c-3.313 0-6-2.687-6-6s2.687-6 6-6 6 2.687 6 6-2.687 6-6 6zM8 6.5c-0.829 0-1.5 0.671-1.5 1.5s0.671 1.5 1.5 1.5 1.5-0.671 1.5-1.5-0.671-1.5-1.5-1.5z"></path>
    </symbol>
    <symbol id="icon-focallength" viewBox="0 0 16 16">
        <path d="M6 9h-3v2l-3-3 3-3v2h3zM10 7h3v-2l3 3-3 3v-2h-3z"></path>
    </symbol>
    <symbol id="icon-aperture" viewBox="0 0 16 16">
        <path d="M10.586 6.99l2.845-4.832c-1.428-1.329-3.326-2.158-5.431-2.158-0.499 0-0.982 0.059-1.456 0.146l4.042 6.843zM9.976 10h5.74c0.166-0.643 0.284-1.305 0.284-2 0-1.937-0.715-3.688-1.861-5.072l-4.162 7.072zM8.25 5l-2.704-4.576c-2.25 0.73-4.069 2.399-4.952 4.576h7.656zM7.816 11l2.696 4.559c2.224-0.742 4.020-2.4 4.895-4.559h-7.59zM6.053 6h-5.769c-0.167 0.643-0.283 1.304-0.283 2 0 1.945 0.722 3.705 1.878 5.094l4.175-7.094zM5.459 8.98l-2.872 4.879c1.426 1.316 3.317 2.14 5.413 2.14 0.521 0 1.027-0.059 1.52-0.152l-4.061-6.867z"></path>
    </symbol>
    <symbol id="icon-mail" viewBox="0 0 16 16">
        <path d="M16 6.339v7.089c0 0.786-0.643 1.429-1.429 1.429h-13.143c-0.786 0-1.429-0.643-1.429-1.429v-7.089c0.268 0.295 0.571 0.554 0.902 0.777 1.482 1.009 2.982 2.018 4.438 3.080 0.75 0.554 1.679 1.232 2.652 1.232h0.018c0.973 0 1.902-0.679 2.652-1.232 1.455-1.054 2.955-2.071 4.446-3.080 0.321-0.223 0.625-0.482 0.893-0.777zM16 3.714c0 1-0.741 1.902-1.527 2.446-1.393 0.964-2.795 1.929-4.179 2.902-0.58 0.402-1.563 1.223-2.286 1.223h-0.018c-0.723 0-1.705-0.821-2.286-1.223-1.384-0.973-2.786-1.938-4.17-2.902-0.634-0.429-1.536-1.438-1.536-2.25 0-0.875 0.473-1.625 1.429-1.625h13.143c0.777 0 1.429 0.643 1.429 1.429z"></path>
    </symbol>
    <symbol id="icon-reply" viewBox="0 0 16 16">
        <path d="M7 12.119v3.881l-6-6 6-6v3.966c6.98 0.164 6.681-4.747 4.904-7.966 4.386 4.741 3.455 12.337-4.904 12.119z"></path>
    </symbol>
    <symbol id="icon-link" viewBox="0 0 16 16">
        <path d="M6.879 9.934c-0.208 0-0.416-0.079-0.575-0.238-1.486-1.486-1.486-3.905 0-5.392l3-3c0.72-0.72 1.678-1.117 2.696-1.117s1.976 0.397 2.696 1.117c1.486 1.487 1.486 3.905 0 5.392l-1.371 1.371c-0.317 0.317-0.832 0.317-1.149 0s-0.317-0.832 0-1.149l1.371-1.371c0.853-0.853 0.853-2.241 0-3.094-0.413-0.413-0.963-0.641-1.547-0.641s-1.134 0.228-1.547 0.641l-3 3c-0.853 0.853-0.853 2.241 0 3.094 0.317 0.317 0.317 0.832 0 1.149-0.159 0.159-0.367 0.238-0.575 0.238z"></path>
        <path d="M4 15.813c-1.018 0-1.976-0.397-2.696-1.117-1.486-1.486-1.486-3.905 0-5.392l1.371-1.371c0.317-0.317 0.832-0.317 1.149 0s0.317 0.832 0 1.149l-1.371 1.371c-0.853 0.853-0.853 2.241 0 3.094 0.413 0.413 0.962 0.641 1.547 0.641s1.134-0.228 1.547-0.641l3-3c0.853-0.853 0.853-2.241 0-3.094-0.317-0.317-0.317-0.832 0-1.149s0.832-0.317 1.149 0c1.486 1.486 1.486 3.905 0 5.392l-3 3c-0.72 0.72-1.678 1.117-2.696 1.117z"></path>
    </symbol>
    <symbol id="icon-FollowAction" viewBox="0 0 16 16">
        <path d="M14.5 0h-13c-0.825 0-1.5 0.675-1.5 1.5v13c0 0.825 0.675 1.5 1.5 1.5h13c0.825 0 1.5-0.675 1.5-1.5v-13c0-0.825-0.675-1.5-1.5-1.5zM4.359 12.988c-0.75 0-1.359-0.603-1.359-1.353 0-0.744 0.609-1.356 1.359-1.356 0.753 0 1.359 0.613 1.359 1.356 0 0.75-0.609 1.353-1.359 1.353zM7.772 13c0-1.278-0.497-2.481-1.397-3.381-0.903-0.903-2.1-1.4-3.375-1.4v-1.956c3.713 0 6.738 3.022 6.738 6.737h-1.966zM11.244 13c0-4.547-3.697-8.25-8.241-8.25v-1.956c5.625 0 10.203 4.581 10.203 10.206h-1.963z"></path>
    </symbol>
    <symbol id="icon-home" viewBox="0 0 16 16">
        <path d="M16 9.226l-8-6.21-8 6.21v-2.532l8-6.21 8 6.21zM14 9v6h-4v-4h-4v4h-4v-6l6-4.5z"></path>
    </symbol>
    <symbol id="icon-note" viewBox="0 0 16 16">
        <path d="M14.341 3.579c-0.347-0.473-0.831-1.027-1.362-1.558s-1.085-1.015-1.558-1.362c-0.806-0.591-1.197-0.659-1.421-0.659h-7.75c-0.689 0-1.25 0.561-1.25 1.25v13.5c0 0.689 0.561 1.25 1.25 1.25h11.5c0.689 0 1.25-0.561 1.25-1.25v-9.75c0-0.224-0.068-0.615-0.659-1.421zM12.271 2.729c0.48 0.48 0.856 0.912 1.134 1.271h-2.406v-2.405c0.359 0.278 0.792 0.654 1.271 1.134zM14 14.75c0 0.136-0.114 0.25-0.25 0.25h-11.5c-0.135 0-0.25-0.114-0.25-0.25v-13.5c0-0.135 0.115-0.25 0.25-0.25 0 0 7.749-0 7.75 0v3.5c0 0.276 0.224 0.5 0.5 0.5h3.5v9.75z"></path>
        <path d="M11.5 13h-7c-0.276 0-0.5-0.224-0.5-0.5s0.224-0.5 0.5-0.5h7c0.276 0 0.5 0.224 0.5 0.5s-0.224 0.5-0.5 0.5z"></path>
        <path d="M11.5 11h-7c-0.276 0-0.5-0.224-0.5-0.5s0.224-0.5 0.5-0.5h7c0.276 0 0.5 0.224 0.5 0.5s-0.224 0.5-0.5 0.5z"></path>
        <path d="M11.5 9h-7c-0.276 0-0.5-0.224-0.5-0.5s0.224-0.5 0.5-0.5h7c0.276 0 0.5 0.224 0.5 0.5s-0.224 0.5-0.5 0.5z"></path>
    </symbol>
    <symbol id="icon-article" viewBox="0 0 16 16">
        <path d="M0 1v14h16v-14h-16zM15 14h-14v-12h14v12zM14 3h-12v10h12v-10zM7 8h-1v1h-1v1h-1v-1h1v-1h1v-1h-1v-1h-1v-1h1v1h1v1h1v1zM11 10h-3v-1h3v1z"></path>
    </symbol>
    <symbol id="icon-journal" viewBox="0 0 16 16">
        <path d="M13.5 0h-12c-0.825 0-1.5 0.675-1.5 1.5v13c0 0.825 0.675 1.5 1.5 1.5h12c0.825 0 1.5-0.675 1.5-1.5v-13c0-0.825-0.675-1.5-1.5-1.5zM13 14h-11v-12h11v12zM4 7h7v1h-7zM4 9h7v1h-7zM4 11h7v1h-7zM4 5h7v1h-7z"></path>
    </symbol>
    <symbol id="icon-photo" viewBox="0 0 18 16">
        <path d="M17 2h-1v-1c0-0.55-0.45-1-1-1h-14c-0.55 0-1 0.45-1 1v12c0 0.55 0.45 1 1 1h1v1c0 0.55 0.45 1 1 1h14c0.55 0 1-0.45 1-1v-12c0-0.55-0.45-1-1-1zM2 3v10h-0.998c-0.001-0.001-0.001-0.001-0.002-0.002v-11.996c0.001-0.001 0.001-0.001 0.002-0.002h13.996c0.001 0.001 0.001 0.001 0.002 0.002v0.998h-12c-0.55 0-1 0.45-1 1v0zM17 14.998c-0.001 0.001-0.001 0.001-0.002 0.002h-13.996c-0.001-0.001-0.001-0.001-0.002-0.002v-11.996c0.001-0.001 0.001-0.001 0.002-0.002h13.996c0.001 0.001 0.001 0.001 0.002 0.002v11.996z"></path>
        <path d="M15 5.5c0 0.828-0.672 1.5-1.5 1.5s-1.5-0.672-1.5-1.5 0.672-1.5 1.5-1.5 1.5 0.672 1.5 1.5z"></path>
        <path d="M16 14h-12v-2l3.5-6 4 5h1l3.5-3z"></path>
    </symbol>
    <symbol id="icon-contrast" viewBox="0 0 16 16">
        <path d="M8 0c-4.418 0-8 3.582-8 8s3.582 8 8 8 8-3.582 8-8-3.582-8-8-8zM2 8c0-3.314 2.686-6 6-6v12c-3.314 0-6-2.686-6-6z"></path>
    </symbol>
    <symbol id="icon-sensitivity" viewBox="0 0 16 16">
        <path d="M8 4c-2.209 0-4 1.791-4 4s1.791 4 4 4 4-1.791 4-4-1.791-4-4-4zM8 10.5v-5c1.379 0 2.5 1.122 2.5 2.5s-1.121 2.5-2.5 2.5zM8 13c0.552 0 1 0.448 1 1v1c0 0.552-0.448 1-1 1s-1-0.448-1-1v-1c0-0.552 0.448-1 1-1zM8 3c-0.552 0-1-0.448-1-1v-1c0-0.552 0.448-1 1-1s1 0.448 1 1v1c0 0.552-0.448 1-1 1zM15 7c0.552 0 1 0.448 1 1s-0.448 1-1 1h-1c-0.552 0-1-0.448-1-1s0.448-1 1-1h1zM3 8c0 0.552-0.448 1-1 1h-1c-0.552 0-1-0.448-1-1s0.448-1 1-1h1c0.552 0 1 0.448 1 1zM12.95 11.536l0.707 0.707c0.39 0.39 0.39 1.024 0 1.414s-1.024 0.39-1.414 0l-0.707-0.707c-0.39-0.39-0.39-1.024 0-1.414s1.024-0.39 1.414 0zM3.050 4.464l-0.707-0.707c-0.391-0.391-0.391-1.024 0-1.414s1.024-0.391 1.414 0l0.707 0.707c0.391 0.391 0.391 1.024 0 1.414s-1.024 0.391-1.414 0zM12.95 4.464c-0.39 0.391-1.024 0.391-1.414 0s-0.39-1.024 0-1.414l0.707-0.707c0.39-0.391 1.024-0.391 1.414 0s0.39 1.024 0 1.414l-0.707 0.707zM3.050 11.536c0.39-0.39 1.024-0.39 1.414 0s0.391 1.024 0 1.414l-0.707 0.707c-0.391 0.39-1.024 0.39-1.414 0s-0.391-1.024 0-1.414l0.707-0.707z"></path>
    </symbol>
    <symbol id="icon-clock" viewBox="0 0 16 16">
        <path d="M10.293 11.707l-3.293-3.293v-4.414h2v3.586l2.707 2.707zM8 0c-4.418 0-8 3.582-8 8s3.582 8 8 8 8-3.582 8-8-3.582-8-8-8zM8 14c-3.314 0-6-2.686-6-6s2.686-6 6-6c3.314 0 6 2.686 6 6s-2.686 6-6 6z"></path>
    </symbol>
    <symbol id="icon-camera" viewBox="0 0 16 16">
        <path d="M4.75 9.5c0 1.795 1.455 3.25 3.25 3.25s3.25-1.455 3.25-3.25-1.455-3.25-3.25-3.25-3.25 1.455-3.25 3.25zM15 4h-3.5c-0.25-1-0.5-2-1.5-2h-4c-1 0-1.25 1-1.5 2h-3.5c-0.55 0-1 0.45-1 1v9c0 0.55 0.45 1 1 1h14c0.55 0 1-0.45 1-1v-9c0-0.55-0.45-1-1-1zM8 13.938c-2.451 0-4.438-1.987-4.438-4.438s1.987-4.438 4.438-4.438c2.451 0 4.438 1.987 4.438 4.438s-1.987 4.438-4.438 4.438zM15 7h-2v-1h2v1z"></path>
    </symbol>
    <symbol id="icon-following" viewBox="0 0 16 16">
        <path d="M5.295 8c-0.929 0.027-1.768 0.429-2.366 1.143h-1.196c-0.893 0-1.732-0.429-1.732-1.42 0-0.723-0.027-3.152 1.107-3.152 0.188 0 1.116 0.759 2.321 0.759 0.411 0 0.804-0.071 1.187-0.205-0.027 0.196-0.045 0.393-0.045 0.589 0 0.813 0.259 1.616 0.723 2.286zM14.857 13.688c0 1.446-0.955 2.313-2.384 2.313h-7.804c-1.429 0-2.384-0.866-2.384-2.313 0-2.018 0.473-5.116 3.089-5.116 0.304 0 1.411 1.241 3.196 1.241s2.893-1.241 3.196-1.241c2.616 0 3.089 3.098 3.089 5.116zM5.714 2.286c0 1.259-1.027 2.286-2.286 2.286s-2.286-1.027-2.286-2.286 1.027-2.286 2.286-2.286 2.286 1.027 2.286 2.286zM12 5.714c0 1.893-1.536 3.429-3.429 3.429s-3.429-1.536-3.429-3.429 1.536-3.429 3.429-3.429 3.429 1.536 3.429 3.429zM17.143 7.723c0 0.991-0.839 1.42-1.732 1.42h-1.196c-0.598-0.714-1.438-1.116-2.366-1.143 0.464-0.67 0.723-1.473 0.723-2.286 0-0.196-0.018-0.393-0.045-0.589 0.384 0.134 0.777 0.205 1.188 0.205 1.205 0 2.134-0.759 2.321-0.759 1.134 0 1.107 2.429 1.107 3.152zM16 2.286c0 1.259-1.027 2.286-2.286 2.286s-2.286-1.027-2.286-2.286 1.027-2.286 2.286-2.286 2.286 1.027 2.286 2.286z"></path>
    </symbol>
    <symbol id="icon-search" viewBox="0 0 16 16">
        <path d="M15.504 13.616l-3.79-3.223c-0.392-0.353-0.811-0.514-1.149-0.499 0.895-1.048 1.435-2.407 1.435-3.893 0-3.314-2.686-6-6-6s-6 2.686-6 6 2.686 6 6 6c1.486 0 2.845-0.54 3.893-1.435-0.016 0.338 0.146 0.757 0.499 1.149l3.223 3.79c0.552 0.613 1.453 0.665 2.003 0.115s0.498-1.452-0.115-2.003zM6 10c-2.209 0-4-1.791-4-4s1.791-4 4-4 4 1.791 4 4-1.791 4-4 4z"></path>
    </symbol>
    <symbol id="icon-resume" viewBox="0 0 16 16">
        <path d="M13.5 0h-12c-0.825 0-1.5 0.675-1.5 1.5v13c0 0.825 0.675 1.5 1.5 1.5h12c0.825 0 1.5-0.675 1.5-1.5v-13c0-0.825-0.675-1.5-1.5-1.5zM13 14h-11v-12h11v12zM4 9h7v1h-7zM4 11h7v1h-7zM5 4.5c0-0.828 0.672-1.5 1.5-1.5s1.5 0.672 1.5 1.5c0 0.828-0.672 1.5-1.5 1.5s-1.5-0.672-1.5-1.5zM7.5 6h-2c-0.825 0-1.5 0.45-1.5 1v1h5v-1c0-0.55-0.675-1-1.5-1z"></path>
    </symbol>
    <symbol id="icon-bookmark" viewBox="0 0 16 16">
        <path d="M4 2v14l5-5 5 5v-14zM12 0h-10v14l1-1v-12h9z"></path>
    </symbol>
    <symbol id="icon-star" viewBox="0 0 16 16">
        <path d="M16 6.204l-5.528-0.803-2.472-5.009-2.472 5.009-5.528 0.803 4 3.899-0.944 5.505 4.944-2.599 4.944 2.599-0.944-5.505 4-3.899z"></path>
    </symbol>
    <symbol id="button-indieweb" viewBox="0 0 80 15">
        <rect width="80" height="15" fill="#666"/>
        <rect x="1" y="1" width="78" height="13" fill="#fff"/>
        <path d="m3 4v2h7v-2h-7zm0 3v4h7v-4h-7z" fill="#fc0d1b"/>
        <path d="m11 4v2h1v-2h-1zm1 2v3h1v-3h-1zm1 0h1v3h1v2h2v-2h1v-3h1v-2h-6v2zm1 3h-1v2h1v-2z" fill="#fc5d20"/>
        <polygon points="21 4 25 4 25 5 26 5 26 7 22 7 22 8 26 8 26 10 25 10 25 11 21 11 21 10 20 10 20 8 19 8 19 7 20 7 20 5 21 5" fill="#fdb02a"/>
        <rect x="29" y="2" width="49" height="1" fill="#fda829"/>
        <rect x="29" y="3" width="49" height="1" fill="#fd9c27"/>
        <rect x="29" y="4" width="49" height="1" fill="#fd9025"/>
        <rect x="29" y="5" width="49" height="1" fill="#fd8124"/>
        <rect x="29" y="6" width="49" height="1" fill="#fd7222"/>
        <rect x="29" y="7" width="49" height="1" fill="#fd6420"/>
        <rect x="29" y="8" width="49" height="1" fill="#fc561f"/>
        <rect x="29" y="9" width="49" height="1" fill="#fc481e"/>
        <rect x="29" y="10" width="49" height="1" fill="#fc371d"/>
        <rect x="29" y="11" width="49" height="1" fill="#fc291c"/>
        <rect x="29" y="12" width="49" height="1" fill="#fc1c1c"/>
        <g fill="#fff">
            <path d="m34 5h1v5h-1z"/>
            <path d="m37 5h1v1h1v1h1v1h1v-3h1v5h-1v-1h-1v-1h-1v-1h-1v3h-1z"/>
            <path d="m44 5v5h3v-1h-2v-3h2v-1h-3zm3 1v3h1v-3h-1z"/>
            <path d="m50 5h1v5h-1z"/>
            <path d="m53 5h3v1h-2v1h2v1h-2v1h2v1h-3z"/>
            <path d="m58 5h1v4h1v-3h1v3h1v-4h1v4h-1v1h-1v-1h-1v1h-1v-1h-1z"/>
            <path d="m65 5h3v1h-2v1h2v1h-2v1h2v1h-3z"/>
            <path d="m70 5v5h3v-1h-2v-1h2v-1h-2v-1h2v-1h-3zm3 1v1h1v-1h-1zm0 2v1h1v-1h-1z"/>
        </g>
    </symbol>
    <symbol id="button-webmention" viewBox="0 0 80 15">
        <rect width="80" height="15" fill="#666"/>
        <rect x="1" y="1" width="78" height="13" fill="#fff" style="paint-order:markers fill stroke"/>
        <path d="m13 1v1h-1v1h-1v1h1 1v1h-1v2h-1v2h-1v-3h-1v-2h-1v2h-1v3h-1v-2h-1v-3h-1v-2h-1-1v2h1v3h1v3h1v3h1 1v-3h1v-2h1v2h1v3h1 1v-3h1v-3h1v-3h1 1v-1h-1v-1h-1v-1h-1z" fill="#610371"/>
        <rect x="19" y="2" width="59" height="11" fill="#850e9a"/>
        <g fill="#fff">
            <path d="m33 5v5h3v-1h-2v-1h2v-1h-2v-1h2v-1h-3zm3 1v1h1v-1h-1zm0 2v1h1v-1h-1z"/>
            <path d="m28 5h3v1h-2v1h2v1h-2v1h2v1h-3z"/>
            <path d="m21 5h1v4h1v-3h1v3h1v-4h1v4h-1v1h-1v-1h-1v1h-1v-1h-1z"/>
            <path d="m39 5h1v1h1v1h1v-1h1v-1h1v5h-1v-3h-1v1h-1v-1h-1v3h-1z"/>
            <path d="m51 5h1v1h1v1h1v1h1v-3h1v5h-1v-1h-1v-1h-1v-1h-1v3h-1z"/>
            <path d="m58 5h3v1h-1v4h-1v-4h-1"/>
            <path d="m63 5h1v5h-1z"/>
            <path d="m67 5v1h2v-1zm2 1v3h1v-3zm0 3h-2v1h2zm-2 0v-3h-1v3z"/>
            <path d="m71 5h1v1h1v1h1v1h1v-3h1v5h-1v-1h-1v-1h-1v-1h-1v3h-1z"/>
            <path d="m46 5h3v1h-2v1h2v1h-2v1h2v1h-3z"/>
        </g>
    </symbol>
    <symbol id="button-microformats" viewBox="0 0 80 15">
        <rect width="80" height="15" fill="#666"/>
        <rect x="1" y="1" width="78" height="13" fill="#fff"/>
        <rect x="18" y="2" width="2" height="11" fill="#5d8f17"/>
        <rect x="20" y="2" width="2" height="11" fill="#609218"/>
        <rect x="22" y="2" width="2" height="11" fill="#639519"/>
        <rect x="24" y="2" width="2" height="11" fill="#66981a"/>
        <rect x="26" y="2" width="2" height="11" fill="#699b1b"/>
        <rect x="28" y="2" width="2" height="11" fill="#6c9e1b"/>
        <rect x="30" y="2" width="2" height="11" fill="#6fa11c"/>
        <rect x="32" y="2" width="2" height="11" fill="#72a51d"/>
        <rect x="34" y="2" width="2" height="11" fill="#76a81e"/>
        <rect x="36" y="2" width="2" height="11" fill="#78aa1f"/>
        <rect x="38" y="2" width="2" height="11" fill="#7cae20"/>
        <rect x="40" y="2" width="2" height="11" fill="#7eb120"/>
        <rect x="42" y="2" width="2" height="11" fill="#82b421"/>
        <rect x="44" y="2" width="2" height="11" fill="#85b722"/>
        <rect x="46" y="2" width="2" height="11" fill="#88ba23"/>
        <rect x="48" y="2" width="2" height="11" fill="#8bbd24"/>
        <rect x="50" y="2" width="2" height="11" fill="#8ec125"/>
        <rect x="52" y="2" width="2" height="11" fill="#91c325"/>
        <rect x="54" y="2" width="2" height="11" fill="#94c626"/>
        <rect x="56" y="2" width="2" height="11" fill="#97ca27"/>
        <rect x="58" y="2" width="2" height="11" fill="#9acd28"/>
        <rect x="60" y="2" width="2" height="11" fill="#9dd029"/>
        <rect x="62" y="2" width="2" height="11" fill="#a0d32a"/>
        <rect x="64" y="2" width="2" height="11" fill="#a4d62b"/>
        <rect x="66" y="2" width="2" height="11" fill="#a6d92b"/>
        <rect x="68" y="2" width="2" height="11" fill="#a8db2c"/>
        <rect x="70" y="2" width="2" height="11" fill="#acdf2d"/>
        <rect x="72" y="2" width="2" height="11" fill="#b0e32e"/>
        <rect x="74" y="2" width="2" height="11" fill="#b3e62f"/>
        <rect x="76" y="2" width="2" height="11" fill="#b6e92f"/>
        <polygon points="4 4 6 4 6 9 7 9 7 10 12 10 12 12 11 12 11 13 4 13 4 12 3 12 3 5 4 5" fill="#5c8d17"/>
        <polygon points="7 3 9 3 9 6 10 6 10 7 13 7 13 9 8 9 8 8 7 8" fill="#8dc024"/>
        <polygon points="10 2 13 2 13 3 14 3 14 6 11 6 11 5 10 5" fill="#a5d82b"/>
        <g fill="#fff">
            <path d="m20 5h1v1h1v1h1v-1h1v-1h1v5h-1v-3h-1v1h-1v-1h-1v3h-1z"/>
            <path d="m26 5h1v5h-1z"/>
            <path d="m29 5h2v1h1v1h-1v-1h-2v3h2v-1h1v1h-1v1h-2v-1h-1v-3h1z"/>
            <path d="m33 5v5h1v-2h1v1h1v-2h-2v-1h2v-1h-3zm3 1v1h1v-1h-1zm0 3v1h1v-1h-1z"/>
            <path d="m39 5v1h2v-1h-2zm2 1v1 1 1h1v-1-1-1h-1zm0 3h-2v1h2v-1zm-2 0v-3h-1v3h1z"/>
            <path d="m43 5h3v1h-2v1h2v1h-2v2h-1z"/>
            <path d="m48 5v1h2v-1h-2zm2 1v1 1 1h1v-1-1-1h-1zm0 3h-2v1h2v-1zm-2 0v-3h-1v3h1z"/>
            <path d="m52 5v5h1v-2h1v1h1v-2h-2v-1h2v-1h-3zm3 1v1h1v-1h-1zm0 3v1h1v-1h-1z"/>
            <path d="m57 5h1v1h1v1h1v-1h1v-1h1v5h-1v-3h-1v1h-1v-1h-1v3h-1z"/>
            <path d="m64 5v1h2v-1h-2zm2 1v1h-2v-1h-1v4h1v-2h2v2h1v-4h-1z"/>
            <path d="m68 5h3v1h-1v4h-1v-4h-1"/>
            <path d="m73 5h3v1h-3v1h2v1h1v1h-1v1h-3v-1h3v-1h-2v-1h-1v-1h1"/>
        </g>
    </symbol>
    <symbol id="button-cc" viewBox="0 0 80 15">
        <rect y="0" width="80" height="15" fill="#000"/>
        <rect x="1" y="1" width="78" height="13" fill="#fff"/>
        <rect x="2" y="2" width="76" height="11" fill="#000"/>
        <g fill="#fff">
            <path d="m42 5h1v1h1v1h1v-1h1v-1h1v5h-1v-3h-1v1h-1v-1h-1v3h-1z"/>
            <path d="m31 5h2v1h1v1h-1v-1h-2v3h2v-1h1v1h-1v1h-2v-1h-1v-3h1z"/>
            <path d="m37 5v1h2v-1zm2 1v3h1v-3zm0 3h-2v1h2zm-2 0v-3h-1v3z"/>
            <path d="m57 5v1h2v-1zm2 1v3h1v-3zm0 3h-2v1h2zm-2 0v-3h-1v3z"/>
            <path d="m49 5h1v1h1v1h1v-1h1v-1h1v5h-1v-3h-1v1h-1v-1h-1v3h-1z"/>
            <path d="m70 5h3v1h-3v1h2v1h1v1h-1v1h-3v-1h3v-1h-2v-1h-1v-1h1"/>
            <path d="m62 5h1v1h1v1h1v1h1v-3h1v5h-1v-1h-1v-1h-1v-1h-1v3h-1z"/>
        </g>
        <path d="m2 2v11h19.891a8.5136 8.5 0 0 0 2.1088-5.5898 8.5136 8.5 0 0 0-1.9563-5.4102h-13.119z" fill="#aaa"/>
        <path d="m6.0195 2a8.5 8.5 0 0 0-2.0195 5.5 8.5 8.5 0 0 0 2.0312 5.5h12.949a8.5 8.5 0 0 0 2.0195-5.5 8.5 8.5 0 0 0-2.0312-5.5z" fill="#000"/>
        <circle cx="12.5" cy="7.5" r="6.5" fill="#fff"/>
        <path d="m9 5h2v1h1v1h-1v-1h-2v3h2v-1h1v1h-1v1h-2v-1h-1v-3h1z" fill="#000"/>
        <path d="m14 5h2v1h1v1h-1v-1h-2v3h2v-1h1v1h-1v1h-2v-1h-1v-3h1z" fill="#000"/>
    </symbol>
    <symbol id="button-nojs" viewBox="0 0 80 15">
        <rect width="80" height="15" fill="#666"/>
        <rect x="1" y="1" width="78" height="13" fill="#fff"/>
        <rect x="16" y="2" width="62" height="11" fill="#666"/>
        <g fill="#fff">
            <path d="m27 5v1h2v-1zm2 1v3h1v-3zm0 3h-2v1h2zm-2 0v-3h-1v3z"/>
            <path d="m20 5h1v1h1v1h1v1h1v-3h1v5h-1v-1h-1v-1h-1v-1h-1v3h-1z"/>
            <rect x="-1" y="259.03" width="78" height="13"/>
            <path d="m70 5v5h3v-1h-2v-3h2v-1zm3 1v3h1v-3z"/>
            <path d="m66 5h3v1h-2v1h2v1h-2v1h2v1h-3z"/>
            <circle cx="7.5" cy="7.5" r="5.5" stroke="#666"/>
        </g>
        <g fill="#666">
            <rect transform="rotate(-45)" x="-6" y="10" width="11" height="1"/>
            <path d="m9 5h3v1h-3v1h2v1h1v1h-1v1h-3v-1h3v-1h-2v-1h-1v-1h1"/>
            <path d="m6 5v4h1v-4zm0 4h-2v1h2zm-2 0v-1h-1v1z"/>
        </g>
        <g fill="#fff">
            <path d="m40 5h3v1h-3v1h2v1h1v1h-1v1h-3v-1h3v-1h-2v-1h-1v-1h1"/>
            <path d="m37 5v4h1v-4zm0 4h-2v1h2zm-2 0v-1h-1v1z"/>
            <path d="m57 5h3v1h-2v1h2v1h-2v1h2v1h-3z"/>
            <path d="m61 5v5h3v-1h-2v-3h2v-1zm3 1v3h1v-3z"/>
            <path d="m53 5h3v1h-2v1h2v1h-2v1h2v1h-3z"/>
            <path d="m47 5h1v1h1v1h1v1h1v-3h1v5h-1v-1h-1v-1h-1v-1h-1v3h-1z"/>
        </g>
    </symbol>
</svg>
