<svg aria-hidden="true" version="1.1" xmlns="http://www.w3.org/2000/svg" xmlns:xlink="http://www.w3.org/1999/xlink">
    <symbol id="icon-flickr" viewBox="0 0 16 16">
        <path d="M0 8c0 2.049 1.663 3.709 3.71 3.709 2.050 0 3.713-1.66 3.713-3.709s-1.662-3.709-3.713-3.709c-2.047 0-3.71 1.66-3.71 3.709zM8.577 8c0 2.049 1.662 3.709 3.711 3.709 2.042 0 3.711-1.66 3.711-3.709s-1.661-3.709-3.709-3.709c-2.050 0-3.713 1.66-3.713 3.709z"></path>
    </symbol>
    <symbol id="icon-github" viewBox="0 0 16 16">
        <path d="M8 0.198c-4.42 0-8 3.582-8 8 0 3.535 2.292 6.533 5.47 7.59 0.4 0.075 0.547-0.172 0.547-0.385 0-0.19-0.007-0.693-0.010-1.36-2.225 0.483-2.695-1.073-2.695-1.073-0.364-0.923-0.89-1.17-0.89-1.17-0.725-0.496 0.056-0.486 0.056-0.486 0.803 0.056 1.225 0.824 1.225 0.824 0.713 1.223 1.873 0.87 2.33 0.665 0.072-0.517 0.278-0.87 0.507-1.070-1.777-0.2-3.644-0.888-3.644-3.953 0-0.873 0.31-1.587 0.823-2.147-0.090-0.202-0.36-1.015 0.070-2.117 0 0 0.67-0.215 2.2 0.82 0.64-0.178 1.32-0.266 2-0.27 0.68 0.004 1.36 0.092 2 0.27 1.52-1.035 2.19-0.82 2.19-0.82 0.43 1.102 0.16 1.915 0.080 2.117 0.51 0.56 0.82 1.273 0.82 2.147 0 3.073-1.87 3.75-3.65 3.947 0.28 0.24 0.54 0.731 0.54 1.48 0 1.071-0.010 1.931-0.010 2.191 0 0.21 0.14 0.46 0.55 0.38 3.201-1.049 5.491-4.049 5.491-7.579 0-4.418-3.582-8-8-8z"></path>
    </symbol>
    <symbol id="icon-xmpp" viewBox="0 0 16 16">
        <path d="M0 2.13c0.1 3.83 3.24 7.8 7.020 10-0.87 0.68-1.84 1.2-2.9 1.46v0.18c1.3-0.12 2.6-0.5 3.87-1.1 0.42 0.2 0.85 0.38 1.28 0.54 0.43 0.17 0.88 0.3 1.33 0.4 0.5 0.13 0.97 0.2 1.44 0.25v-0.050h0.030v-0.14c-1.12-0.3-2.14-0.84-3.040-1.56 3.77-2.17 6.87-6.11 6.97-9.99l-2.4 0.94-2.47 0.73v0.36c0 2.28-1.15 5.060-3.080 7.050-1.87-1.97-3-4.7-3-6.95 0-0.12 0-0.24 0.020-0.37l-2.3-0.68-2.77-1.070z"></path>
    </symbol>
    <symbol id="icon-paypal" viewBox="0 0 16 16">
        <path d="M4.605 16h-2.069c-0.443 0-0.724-0.353-0.624-0.787l0.099-0.449h1.381c0.444 0 0.891-0.355 0.988-0.788l0.709-3.061c0.1-0.432 0.544-0.787 0.987-0.787h0.589c2.526 0 4.489-0.519 5.893-1.56s2.107-2.4 2.107-4.090c0-0.75-0.13-1.37-0.392-1.859 0-0.011-0.011-0.021-0.011-0.031l0.090 0.050c0.5 0.31 0.88 0.709 1.141 1.209 0.269 0.5 0.399 1.12 0.399 1.861 0 1.69-0.699 3.049-2.109 4.090-1.4 1.030-3.37 1.549-5.889 1.549h-0.6c-0.44 0-0.889 0.35-0.989 0.791l-0.71 3.070c-0.099 0.43-0.54 0.78-0.98 0.78l-0.008 0.012zM2.821 14.203h-2.070c-0.442 0-0.723-0.353-0.624-0.787l2.915-12.629c0.101-0.435 0.543-0.788 0.987-0.788h4.31c0.93 0 1.739 0.065 2.432 0.193 0.69 0.126 1.28 0.346 1.789 0.66 0.491 0.31 0.881 0.715 1.131 1.212 0.259 0.499 0.389 1.12 0.389 1.865 0 1.69-0.701 3.049-2.109 4.079-1.4 1.041-3.371 1.551-5.891 1.551h-0.589c-0.44 0-0.885 0.349-0.985 0.779l-0.707 3.059c-0.099 0.431-0.545 0.781-0.99 0.781l0.011 0.024zM7.785 2.624h-0.676c-0.444 0-0.888 0.353-0.987 0.785l-0.62 2.68c-0.1 0.432 0.18 0.786 0.62 0.786h0.511c1.109 0 1.98-0.229 2.6-0.681 0.619-0.457 0.93-1.103 0.93-1.941 0-0.553-0.201-0.963-0.6-1.227-0.4-0.269-1-0.403-1.791-0.403l0.013 0.001z"></path>
    </symbol>
    <symbol id="icon-monzo" viewBox="0 0 16 16">
        <path d="M14.5 2h-13c-0.825 0-1.5 0.675-1.5 1.5v9c0 0.825 0.675 1.5 1.5 1.5h13c0.825 0 1.5-0.675 1.5-1.5v-9c0-0.825-0.675-1.5-1.5-1.5zM1.5 3h13c0.271 0 0.5 0.229 0.5 0.5v1.5h-14v-1.5c0-0.271 0.229-0.5 0.5-0.5zM14.5 13h-13c-0.271 0-0.5-0.229-0.5-0.5v-4.5h14v4.5c0 0.271-0.229 0.5-0.5 0.5zM2 10h1v2h-1zM4 10h1v2h-1zM6 10h1v2h-1z"></path>
    </symbol>
    <symbol id="icon-lens" viewBox="0 0 16 16">
        <path d="M8 4c-2.209 0-4 1.791-4 4s1.791 4 4 4 4-1.791 4-4-1.791-4-4-4zM8 11c-1.657 0-3-1.344-3-3s1.343-3 3-3 3 1.343 3 3-1.344 3-3 3zM8 0c-4.418 0-8 3.582-8 8s3.582 8 8 8 8-3.582 8-8-3.582-8-8-8zM8 14c-3.313 0-6-2.687-6-6s2.687-6 6-6 6 2.687 6 6-2.687 6-6 6zM8 6.5c-0.829 0-1.5 0.671-1.5 1.5s0.671 1.5 1.5 1.5 1.5-0.671 1.5-1.5-0.671-1.5-1.5-1.5z"></path>
    </symbol>
    <symbol id="icon-focallength" viewBox="0 0 16 16">
        <path d="M6 9h-3v2l-3-3 3-3v2h3zM10 7h3v-2l3 3-3 3v-2h-3z"></path>
    </symbol>
    <symbol id="icon-aperture" viewBox="0 0 16 16">
        <path d="M10.586 6.99l2.845-4.832c-1.428-1.329-3.326-2.158-5.431-2.158-0.499 0-0.982 0.059-1.456 0.146l4.042 6.843zM9.976 10h5.74c0.166-0.643 0.284-1.305 0.284-2 0-1.937-0.715-3.688-1.861-5.072l-4.162 7.072zM8.25 5l-2.704-4.576c-2.25 0.73-4.069 2.399-4.952 4.576h7.656zM7.816 11l2.696 4.559c2.224-0.742 4.020-2.4 4.895-4.559h-7.59zM6.053 6h-5.769c-0.167 0.643-0.283 1.304-0.283 2 0 1.945 0.722 3.705 1.878 5.094l4.175-7.094zM5.459 8.98l-2.872 4.879c1.426 1.316 3.317 2.14 5.413 2.14 0.521 0 1.027-0.059 1.52-0.152l-4.061-6.867z"></path>
    </symbol>
    <symbol id="icon-mail" viewBox="0 0 16 16">
        <path d="M16 6.339v7.089c0 0.786-0.643 1.429-1.429 1.429h-13.143c-0.786 0-1.429-0.643-1.429-1.429v-7.089c0.268 0.295 0.571 0.554 0.902 0.777 1.482 1.009 2.982 2.018 4.438 3.080 0.75 0.554 1.679 1.232 2.652 1.232h0.018c0.973 0 1.902-0.679 2.652-1.232 1.455-1.054 2.955-2.071 4.446-3.080 0.321-0.223 0.625-0.482 0.893-0.777zM16 3.714c0 1-0.741 1.902-1.527 2.446-1.393 0.964-2.795 1.929-4.179 2.902-0.58 0.402-1.563 1.223-2.286 1.223h-0.018c-0.723 0-1.705-0.821-2.286-1.223-1.384-0.973-2.786-1.938-4.17-2.902-0.634-0.429-1.536-1.438-1.536-2.25 0-0.875 0.473-1.625 1.429-1.625h13.143c0.777 0 1.429 0.643 1.429 1.429z"></path>
    </symbol>
    <symbol id="icon-reply" viewBox="0 0 16 16">
        <path d="M7 12.119v3.881l-6-6 6-6v3.966c6.98 0.164 6.681-4.747 4.904-7.966 4.386 4.741 3.455 12.337-4.904 12.119z"></path>
    </symbol>
    <symbol id="icon-link" viewBox="0 0 16 16">
        <path d="M6.879 9.934c-0.208 0-0.416-0.079-0.575-0.238-1.486-1.486-1.486-3.905 0-5.392l3-3c0.72-0.72 1.678-1.117 2.696-1.117s1.976 0.397 2.696 1.117c1.486 1.487 1.486 3.905 0 5.392l-1.371 1.371c-0.317 0.317-0.832 0.317-1.149 0s-0.317-0.832 0-1.149l1.371-1.371c0.853-0.853 0.853-2.241 0-3.094-0.413-0.413-0.963-0.641-1.547-0.641s-1.134 0.228-1.547 0.641l-3 3c-0.853 0.853-0.853 2.241 0 3.094 0.317 0.317 0.317 0.832 0 1.149-0.159 0.159-0.367 0.238-0.575 0.238z"></path>
        <path d="M4 15.813c-1.018 0-1.976-0.397-2.696-1.117-1.486-1.486-1.486-3.905 0-5.392l1.371-1.371c0.317-0.317 0.832-0.317 1.149 0s0.317 0.832 0 1.149l-1.371 1.371c-0.853 0.853-0.853 2.241 0 3.094 0.413 0.413 0.962 0.641 1.547 0.641s1.134-0.228 1.547-0.641l3-3c0.853-0.853 0.853-2.241 0-3.094-0.317-0.317-0.317-0.832 0-1.149s0.832-0.317 1.149 0c1.486 1.486 1.486 3.905 0 5.392l-3 3c-0.72 0.72-1.678 1.117-2.696 1.117z"></path>
    </symbol>
    <symbol id="icon-feed" viewBox="0 0 16 16">
        <path d="M14.5 0h-13c-0.825 0-1.5 0.675-1.5 1.5v13c0 0.825 0.675 1.5 1.5 1.5h13c0.825 0 1.5-0.675 1.5-1.5v-13c0-0.825-0.675-1.5-1.5-1.5zM4.359 12.988c-0.75 0-1.359-0.603-1.359-1.353 0-0.744 0.609-1.356 1.359-1.356 0.753 0 1.359 0.613 1.359 1.356 0 0.75-0.609 1.353-1.359 1.353zM7.772 13c0-1.278-0.497-2.481-1.397-3.381-0.903-0.903-2.1-1.4-3.375-1.4v-1.956c3.713 0 6.738 3.022 6.738 6.737h-1.966zM11.244 13c0-4.547-3.697-8.25-8.241-8.25v-1.956c5.625 0 10.203 4.581 10.203 10.206h-1.963z"></path>
    </symbol>
    <symbol id="icon-home" viewBox="0 0 16 16">
        <path d="M16 9.226l-8-6.21-8 6.21v-2.532l8-6.21 8 6.21zM14 9v6h-4v-4h-4v4h-4v-6l6-4.5z"></path>
    </symbol>
    <symbol id="icon-note" viewBox="0 0 16 16">
        <path d="M14.341 3.579c-0.347-0.473-0.831-1.027-1.362-1.558s-1.085-1.015-1.558-1.362c-0.806-0.591-1.197-0.659-1.421-0.659h-7.75c-0.689 0-1.25 0.561-1.25 1.25v13.5c0 0.689 0.561 1.25 1.25 1.25h11.5c0.689 0 1.25-0.561 1.25-1.25v-9.75c0-0.224-0.068-0.615-0.659-1.421zM12.271 2.729c0.48 0.48 0.856 0.912 1.134 1.271h-2.406v-2.405c0.359 0.278 0.792 0.654 1.271 1.134zM14 14.75c0 0.136-0.114 0.25-0.25 0.25h-11.5c-0.135 0-0.25-0.114-0.25-0.25v-13.5c0-0.135 0.115-0.25 0.25-0.25 0 0 7.749-0 7.75 0v3.5c0 0.276 0.224 0.5 0.5 0.5h3.5v9.75z"></path>
        <path d="M11.5 13h-7c-0.276 0-0.5-0.224-0.5-0.5s0.224-0.5 0.5-0.5h7c0.276 0 0.5 0.224 0.5 0.5s-0.224 0.5-0.5 0.5z"></path>
        <path d="M11.5 11h-7c-0.276 0-0.5-0.224-0.5-0.5s0.224-0.5 0.5-0.5h7c0.276 0 0.5 0.224 0.5 0.5s-0.224 0.5-0.5 0.5z"></path>
        <path d="M11.5 9h-7c-0.276 0-0.5-0.224-0.5-0.5s0.224-0.5 0.5-0.5h7c0.276 0 0.5 0.224 0.5 0.5s-0.224 0.5-0.5 0.5z"></path>
    </symbol>
    <symbol id="icon-article" viewBox="0 0 16 16">
        <path d="M0 1v14h16v-14h-16zM15 14h-14v-12h14v12zM14 3h-12v10h12v-10zM7 8h-1v1h-1v1h-1v-1h1v-1h1v-1h-1v-1h-1v-1h1v1h1v1h1v1zM11 10h-3v-1h3v1z"></path>
    </symbol>
    <symbol id="icon-journal" viewBox="0 0 16 16">
        <path d="M13.5 0h-12c-0.825 0-1.5 0.675-1.5 1.5v13c0 0.825 0.675 1.5 1.5 1.5h12c0.825 0 1.5-0.675 1.5-1.5v-13c0-0.825-0.675-1.5-1.5-1.5zM13 14h-11v-12h11v12zM4 7h7v1h-7zM4 9h7v1h-7zM4 11h7v1h-7zM4 5h7v1h-7z"></path>
    </symbol>
    <symbol id="icon-photo" viewBox="0 0 18 16">
        <path d="M17 2h-1v-1c0-0.55-0.45-1-1-1h-14c-0.55 0-1 0.45-1 1v12c0 0.55 0.45 1 1 1h1v1c0 0.55 0.45 1 1 1h14c0.55 0 1-0.45 1-1v-12c0-0.55-0.45-1-1-1zM2 3v10h-0.998c-0.001-0.001-0.001-0.001-0.002-0.002v-11.996c0.001-0.001 0.001-0.001 0.002-0.002h13.996c0.001 0.001 0.001 0.001 0.002 0.002v0.998h-12c-0.55 0-1 0.45-1 1v0zM17 14.998c-0.001 0.001-0.001 0.001-0.002 0.002h-13.996c-0.001-0.001-0.001-0.001-0.002-0.002v-11.996c0.001-0.001 0.001-0.001 0.002-0.002h13.996c0.001 0.001 0.001 0.001 0.002 0.002v11.996z"></path>
        <path d="M15 5.5c0 0.828-0.672 1.5-1.5 1.5s-1.5-0.672-1.5-1.5 0.672-1.5 1.5-1.5 1.5 0.672 1.5 1.5z"></path>
        <path d="M16 14h-12v-2l3.5-6 4 5h1l3.5-3z"></path>
    </symbol>
    <symbol id="icon-contrast" viewBox="0 0 16 16">
        <path d="M8 0c-4.418 0-8 3.582-8 8s3.582 8 8 8 8-3.582 8-8-3.582-8-8-8zM2 8c0-3.314 2.686-6 6-6v12c-3.314 0-6-2.686-6-6z"></path>
    </symbol>
    <symbol id="icon-sensitivity" viewBox="0 0 16 16">
        <path d="M8 4c-2.209 0-4 1.791-4 4s1.791 4 4 4 4-1.791 4-4-1.791-4-4-4zM8 10.5v-5c1.379 0 2.5 1.122 2.5 2.5s-1.121 2.5-2.5 2.5zM8 13c0.552 0 1 0.448 1 1v1c0 0.552-0.448 1-1 1s-1-0.448-1-1v-1c0-0.552 0.448-1 1-1zM8 3c-0.552 0-1-0.448-1-1v-1c0-0.552 0.448-1 1-1s1 0.448 1 1v1c0 0.552-0.448 1-1 1zM15 7c0.552 0 1 0.448 1 1s-0.448 1-1 1h-1c-0.552 0-1-0.448-1-1s0.448-1 1-1h1zM3 8c0 0.552-0.448 1-1 1h-1c-0.552 0-1-0.448-1-1s0.448-1 1-1h1c0.552 0 1 0.448 1 1zM12.95 11.536l0.707 0.707c0.39 0.39 0.39 1.024 0 1.414s-1.024 0.39-1.414 0l-0.707-0.707c-0.39-0.39-0.39-1.024 0-1.414s1.024-0.39 1.414 0zM3.050 4.464l-0.707-0.707c-0.391-0.391-0.391-1.024 0-1.414s1.024-0.391 1.414 0l0.707 0.707c0.391 0.391 0.391 1.024 0 1.414s-1.024 0.391-1.414 0zM12.95 4.464c-0.39 0.391-1.024 0.391-1.414 0s-0.39-1.024 0-1.414l0.707-0.707c0.39-0.391 1.024-0.391 1.414 0s0.39 1.024 0 1.414l-0.707 0.707zM3.050 11.536c0.39-0.39 1.024-0.39 1.414 0s0.391 1.024 0 1.414l-0.707 0.707c-0.391 0.39-1.024 0.39-1.414 0s-0.391-1.024 0-1.414l0.707-0.707z"></path>
    </symbol>
    <symbol id="icon-clock" viewBox="0 0 16 16">
        <path d="M10.293 11.707l-3.293-3.293v-4.414h2v3.586l2.707 2.707zM8 0c-4.418 0-8 3.582-8 8s3.582 8 8 8 8-3.582 8-8-3.582-8-8-8zM8 14c-3.314 0-6-2.686-6-6s2.686-6 6-6c3.314 0 6 2.686 6 6s-2.686 6-6 6z"></path>
    </symbol>
    <symbol id="icon-camera" viewBox="0 0 16 16">
        <path d="M4.75 9.5c0 1.795 1.455 3.25 3.25 3.25s3.25-1.455 3.25-3.25-1.455-3.25-3.25-3.25-3.25 1.455-3.25 3.25zM15 4h-3.5c-0.25-1-0.5-2-1.5-2h-4c-1 0-1.25 1-1.5 2h-3.5c-0.55 0-1 0.45-1 1v9c0 0.55 0.45 1 1 1h14c0.55 0 1-0.45 1-1v-9c0-0.55-0.45-1-1-1zM8 13.938c-2.451 0-4.438-1.987-4.438-4.438s1.987-4.438 4.438-4.438c2.451 0 4.438 1.987 4.438 4.438s-1.987 4.438-4.438 4.438zM15 7h-2v-1h2v1z"></path>
    </symbol>
    <symbol id="icon-whatsapp" viewBox="0 0 16 16">
        <path d="M11.665 9.588c-0.201-0.1-1.178-0.578-1.36-0.644-0.182-0.067-0.315-0.1-0.449 0.1-0.131 0.197-0.514 0.643-0.629 0.775-0.117 0.13-0.233 0.14-0.431 0.050-0.2-0.1-0.842-0.31-1.602-0.99-0.592-0.53-0.989-1.18-1.107-1.38-0.116-0.2-0.013-0.31 0.087-0.41 0.091-0.090 0.201-0.23 0.301-0.349 0.097-0.121 0.129-0.201 0.198-0.331 0.067-0.14 0.033-0.25-0.017-0.349s-0.448-1.080-0.615-1.471c-0.16-0.389-0.325-0.34-0.448-0.34-0.115-0.010-0.247-0.010-0.381-0.010s-0.349 0.049-0.531 0.239c-0.182 0.2-0.697 0.68-0.697 1.65s0.713 1.91 0.813 2.050c0.099 0.13 1.403 2.13 3.4 2.99 0.476 0.2 0.847 0.32 1.136 0.419 0.476 0.151 0.91 0.13 1.253 0.081 0.383-0.061 1.178-0.481 1.344-0.951 0.17-0.47 0.17-0.86 0.12-0.95s-0.18-0.14-0.38-0.23zM8.041 14.5h-0.011c-1.18 0-2.349-0.32-3.37-0.92l-0.24-0.143-2.5 0.65 0.67-2.43-0.159-0.25c-0.66-1.051-1.011-2.261-1.011-3.507 0-3.63 2.97-6.59 6.628-6.59 1.769 0 3.43 0.69 4.681 1.94 1.25 1.239 1.939 2.9 1.939 4.66-0.003 3.629-2.973 6.59-6.623 6.59zM13.68 2.299c-1.52-1.469-3.52-2.299-5.65-2.299-4.388 0-7.961 3.556-7.963 7.929 0 1.397 0.366 2.76 1.063 3.963l-1.131 4.108 4.223-1.101c1.164 0.629 2.473 0.963 3.807 0.965h0.004c4.39 0 7.964-3.557 7.966-7.931 0-2.117-0.827-4.11-2.33-5.607z"></path>
    </symbol>
    <symbol id="icon-telegram" viewBox="0 0 16 16">
        <path d="M6.019 13.891c-0.476 0-0.395-0.181-0.559-0.633l-1.402-4.613 10.785-6.399z"></path>
        <path d="M6.019 13.891c0.368 0 0.53-0.168 0.737-0.369l1.961-1.905-2.447-1.476z"></path>
        <path d="M6.269 10.142l5.927 4.379c0.677 0.373 1.165 0.181 1.333-0.628l2.413-11.369c0.248-0.991-0.376-1.439-1.023-1.147l-14.169 5.465c-0.967 0.388-0.962 0.928-0.176 1.169l3.637 1.133 8.416-5.309c0.397-0.24 0.762-0.111 0.463 0.155z"></path>
    </symbol>
    <symbol id="icon-phone" viewBox="0 0 16 16">
        <path d="M11 10c-1 1-1 2-2 2s-2-1-3-2-2-2-2-3 1-1 2-2-2-4-3-4-3 3-3 3c0 2 2.055 6.055 4 8s6 4 8 4c0 0 3-2 3-3s-3-4-4-3z"></path>
    </symbol>
    <symbol id="icon-following" viewBox="0 0 16 16">
        <path d="M5.295 8c-0.929 0.027-1.768 0.429-2.366 1.143h-1.196c-0.893 0-1.732-0.429-1.732-1.42 0-0.723-0.027-3.152 1.107-3.152 0.188 0 1.116 0.759 2.321 0.759 0.411 0 0.804-0.071 1.187-0.205-0.027 0.196-0.045 0.393-0.045 0.589 0 0.813 0.259 1.616 0.723 2.286zM14.857 13.688c0 1.446-0.955 2.313-2.384 2.313h-7.804c-1.429 0-2.384-0.866-2.384-2.313 0-2.018 0.473-5.116 3.089-5.116 0.304 0 1.411 1.241 3.196 1.241s2.893-1.241 3.196-1.241c2.616 0 3.089 3.098 3.089 5.116zM5.714 2.286c0 1.259-1.027 2.286-2.286 2.286s-2.286-1.027-2.286-2.286 1.027-2.286 2.286-2.286 2.286 1.027 2.286 2.286zM12 5.714c0 1.893-1.536 3.429-3.429 3.429s-3.429-1.536-3.429-3.429 1.536-3.429 3.429-3.429 3.429 1.536 3.429 3.429zM17.143 7.723c0 0.991-0.839 1.42-1.732 1.42h-1.196c-0.598-0.714-1.438-1.116-2.366-1.143 0.464-0.67 0.723-1.473 0.723-2.286 0-0.196-0.018-0.393-0.045-0.589 0.384 0.134 0.777 0.205 1.188 0.205 1.205 0 2.134-0.759 2.321-0.759 1.134 0 1.107 2.429 1.107 3.152zM16 2.286c0 1.259-1.027 2.286-2.286 2.286s-2.286-1.027-2.286-2.286 1.027-2.286 2.286-2.286 2.286 1.027 2.286 2.286z"></path>
    </symbol>
    <symbol id="icon-search" viewBox="0 0 16 16">
        <path d="M15.504 13.616l-3.79-3.223c-0.392-0.353-0.811-0.514-1.149-0.499 0.895-1.048 1.435-2.407 1.435-3.893 0-3.314-2.686-6-6-6s-6 2.686-6 6 2.686 6 6 6c1.486 0 2.845-0.54 3.893-1.435-0.016 0.338 0.146 0.757 0.499 1.149l3.223 3.79c0.552 0.613 1.453 0.665 2.003 0.115s0.498-1.452-0.115-2.003zM6 10c-2.209 0-4-1.791-4-4s1.791-4 4-4 4 1.791 4 4-1.791 4-4 4z"></path>
    </symbol>
    <symbol id="icon-me" viewBox="0 0 16 16">
        <path d="M9 11.041v-0.825c1.102-0.621 2-2.168 2-3.716 0-2.485 0-4.5-3-4.5s-3 2.015-3 4.5c0 1.548 0.898 3.095 2 3.716v0.825c-3.392 0.277-6 1.944-6 3.959h14c0-2.015-2.608-3.682-6-3.959z"></path>
    </symbol>
    <symbol id="icon-resume" viewBox="0 0 16 16">
        <path d="M13.5 0h-12c-0.825 0-1.5 0.675-1.5 1.5v13c0 0.825 0.675 1.5 1.5 1.5h12c0.825 0 1.5-0.675 1.5-1.5v-13c0-0.825-0.675-1.5-1.5-1.5zM13 14h-11v-12h11v12zM4 9h7v1h-7zM4 11h7v1h-7zM5 4.5c0-0.828 0.672-1.5 1.5-1.5s1.5 0.672 1.5 1.5c0 0.828-0.672 1.5-1.5 1.5s-1.5-0.672-1.5-1.5zM7.5 6h-2c-0.825 0-1.5 0.45-1.5 1v1h5v-1c0-0.55-0.675-1-1.5-1z"></path>
    </symbol>
</svg>
