<svg class="hide" version="1.1" xmlns="http://www.w3.org/2000/svg" xmlns:xlink="http://www.w3.org/1999/xlink">

	<symbol id="icon-monzo" viewBox="0 0 16 16">
		<path d="M14.5 2h-13c-0.825 0-1.5 0.675-1.5 1.5v9c0 0.825 0.675 1.5 1.5 1.5h13c0.825 0 1.5-0.675 1.5-1.5v-9c0-0.825-0.675-1.5-1.5-1.5zM1.5 3h13c0.271 0 0.5 0.229 0.5 0.5v1.5h-14v-1.5c0-0.271 0.229-0.5 0.5-0.5zM14.5 13h-13c-0.271 0-0.5-0.229-0.5-0.5v-4.5h14v4.5c0 0.271-0.229 0.5-0.5 0.5zM2 10h1v2h-1zM4 10h1v2h-1zM6 10h1v2h-1z"></path>
	</symbol>
	<symbol id="icon-paypal" viewBox="0 0 16 16">
		<path d="M14.531 4.822c-0.747 3.316-3.053 5.066-6.688 5.066h-1.209l-0.841 5.338h-1.013l-0.053 0.344c-0.034 0.228 0.141 0.431 0.369 0.431h2.588c0.306 0 0.566-0.222 0.616-0.525l0.025-0.131 0.488-3.091 0.031-0.169c0.047-0.303 0.309-0.525 0.616-0.525h0.384c2.506 0 4.469-1.019 5.044-3.963 0.216-1.119 0.134-2.069-0.356-2.775z"></path>
		<path d="M12.984 1.206c-0.741-0.844-2.081-1.206-3.794-1.206h-4.972c-0.35 0-0.65 0.253-0.703 0.6l-2.072 13.131c-0.041 0.259 0.159 0.494 0.422 0.494h3.072l0.772-4.891-0.025 0.153c0.053-0.347 0.35-0.6 0.7-0.6h1.459c2.866 0 5.109-1.162 5.766-4.531 0.019-0.1 0.037-0.197 0.050-0.291 0.194-1.244 0-2.094-0.675-2.859z"></path>
	</symbol>
	<symbol id="icon-home" viewBox="0 0 16 16">
		<path d="M16 9.226l-8-6.21-8 6.21v-2.532l8-6.21 8 6.21zM14 9v6h-4v-4h-4v4h-4v-6l6-4.5z"></path>
	</symbol>
	<symbol id="icon-article" viewBox="0 0 16 16">
		<path d="M0 1v14h16v-14h-16zM15 14h-14v-12h14v12zM14 3h-12v10h12v-10zM7 8h-1v1h-1v1h-1v-1h1v-1h1v-1h-1v-1h-1v-1h1v1h1v1h1v1zM11 10h-3v-1h3v1z"></path>
	</symbol>
	<symbol id="icon-journal" viewBox="0 0 16 16">
		<path d="M13.5 0h-12c-0.825 0-1.5 0.675-1.5 1.5v13c0 0.825 0.675 1.5 1.5 1.5h12c0.825 0 1.5-0.675 1.5-1.5v-13c0-0.825-0.675-1.5-1.5-1.5zM13 14h-11v-12h11v12zM4 7h7v1h-7zM4 9h7v1h-7zM4 11h7v1h-7zM4 5h7v1h-7z"></path>
	</symbol>
	<symbol id="icon-photo" viewBox="0 0 18 16">
		<path d="M17 2h-1v-1c0-0.55-0.45-1-1-1h-14c-0.55 0-1 0.45-1 1v12c0 0.55 0.45 1 1 1h1v1c0 0.55 0.45 1 1 1h14c0.55 0 1-0.45 1-1v-12c0-0.55-0.45-1-1-1zM2 3v10h-0.998c-0.001-0.001-0.001-0.001-0.002-0.002v-11.996c0.001-0.001 0.001-0.001 0.002-0.002h13.996c0.001 0.001 0.001 0.001 0.002 0.002v0.998h-12c-0.55 0-1 0.45-1 1v0zM17 14.998c-0.001 0.001-0.001 0.001-0.002 0.002h-13.996c-0.001-0.001-0.001-0.001-0.002-0.002v-11.996c0.001-0.001 0.001-0.001 0.002-0.002h13.996c0.001 0.001 0.001 0.001 0.002 0.002v11.996z"></path>
		<path d="M15 5.5c0 0.828-0.672 1.5-1.5 1.5s-1.5-0.672-1.5-1.5 0.672-1.5 1.5-1.5 1.5 0.672 1.5 1.5z"></path>
		<path d="M16 14h-12v-2l3.5-6 4 5h1l3.5-3z"></path>
	</symbol>
	<symbol id="icon-note" viewBox="0 0 16 16">
		<path d="M14.341 3.579c-0.347-0.473-0.831-1.027-1.362-1.558s-1.085-1.015-1.558-1.362c-0.806-0.591-1.197-0.659-1.421-0.659h-7.75c-0.689 0-1.25 0.561-1.25 1.25v13.5c0 0.689 0.561 1.25 1.25 1.25h11.5c0.689 0 1.25-0.561 1.25-1.25v-9.75c0-0.224-0.068-0.615-0.659-1.421zM12.271 2.729c0.48 0.48 0.856 0.912 1.134 1.271h-2.406v-2.405c0.359 0.278 0.792 0.654 1.271 1.134zM14 14.75c0 0.136-0.114 0.25-0.25 0.25h-11.5c-0.135 0-0.25-0.114-0.25-0.25v-13.5c0-0.135 0.115-0.25 0.25-0.25 0 0 7.749-0 7.75 0v3.5c0 0.276 0.224 0.5 0.5 0.5h3.5v9.75z"></path>
		<path d="M11.5 13h-7c-0.276 0-0.5-0.224-0.5-0.5s0.224-0.5 0.5-0.5h7c0.276 0 0.5 0.224 0.5 0.5s-0.224 0.5-0.5 0.5z"></path>
		<path d="M11.5 11h-7c-0.276 0-0.5-0.224-0.5-0.5s0.224-0.5 0.5-0.5h7c0.276 0 0.5 0.224 0.5 0.5s-0.224 0.5-0.5 0.5z"></path>
		<path d="M11.5 9h-7c-0.276 0-0.5-0.224-0.5-0.5s0.224-0.5 0.5-0.5h7c0.276 0 0.5 0.224 0.5 0.5s-0.224 0.5-0.5 0.5z"></path>
	</symbol>
	<symbol id="icon-rss" viewBox="0 0 16 16">
		<path d="M14.5 0h-13c-0.825 0-1.5 0.675-1.5 1.5v13c0 0.825 0.675 1.5 1.5 1.5h13c0.825 0 1.5-0.675 1.5-1.5v-13c0-0.825-0.675-1.5-1.5-1.5zM4.359 12.988c-0.75 0-1.359-0.603-1.359-1.353 0-0.744 0.609-1.356 1.359-1.356 0.753 0 1.359 0.613 1.359 1.356 0 0.75-0.609 1.353-1.359 1.353zM7.772 13c0-1.278-0.497-2.481-1.397-3.381-0.903-0.903-2.1-1.4-3.375-1.4v-1.956c3.713 0 6.738 3.022 6.738 6.737h-1.966zM11.244 13c0-4.547-3.697-8.25-8.241-8.25v-1.956c5.625 0 10.203 4.581 10.203 10.206h-1.963z"></path>
	</symbol>
	<symbol id="icon-camera" viewBox="0 0 16 16">
		<path d="M4.75 9.5c0 1.795 1.455 3.25 3.25 3.25s3.25-1.455 3.25-3.25-1.455-3.25-3.25-3.25-3.25 1.455-3.25 3.25zM15 4h-3.5c-0.25-1-0.5-2-1.5-2h-4c-1 0-1.25 1-1.5 2h-3.5c-0.55 0-1 0.45-1 1v9c0 0.55 0.45 1 1 1h14c0.55 0 1-0.45 1-1v-9c0-0.55-0.45-1-1-1zM8 13.938c-2.451 0-4.438-1.987-4.438-4.438s1.987-4.438 4.438-4.438c2.451 0 4.438 1.987 4.438 4.438s-1.987 4.438-4.438 4.438zM15 7h-2v-1h2v1z"></path>
	</symbol>
	<symbol id="icon-focallength" viewBox="0 0 16 16">
		<path d="M16 8c0 0.152-0.063 0.295-0.17 0.402l-2.286 2.286c-0.107 0.107-0.25 0.17-0.402 0.17-0.313 0-0.571-0.259-0.571-0.571v-1.143h-9.143v1.143c0 0.313-0.259 0.571-0.571 0.571-0.152 0-0.295-0.063-0.402-0.17l-2.286-2.286c-0.107-0.107-0.17-0.25-0.17-0.402s0.063-0.295 0.17-0.402l2.286-2.286c0.107-0.107 0.25-0.17 0.402-0.17 0.313 0 0.571 0.259 0.571 0.571v1.143h9.143v-1.143c0-0.313 0.259-0.571 0.571-0.571 0.152 0 0.295 0.063 0.402 0.17l2.286 2.286c0.107 0.107 0.17 0.25 0.17 0.402z"></path>
	</symbol>
	<symbol id="icon-aperture" viewBox="0 0 16 16">
		<path d="M10.586 6.99l2.845-4.832c-1.428-1.329-3.326-2.158-5.431-2.158-0.499 0-0.982 0.059-1.456 0.146l4.042 6.843zM9.976 10h5.74c0.166-0.643 0.284-1.305 0.284-2 0-1.937-0.715-3.688-1.861-5.072l-4.162 7.072zM8.25 5l-2.704-4.576c-2.25 0.73-4.069 2.399-4.952 4.576h7.656zM7.816 11l2.696 4.559c2.224-0.742 4.020-2.4 4.895-4.559h-7.59zM6.053 6h-5.769c-0.167 0.643-0.283 1.304-0.283 2 0 1.945 0.722 3.705 1.878 5.094l4.175-7.094zM5.459 8.98l-2.872 4.879c1.426 1.316 3.317 2.14 5.413 2.14 0.521 0 1.027-0.059 1.52-0.152l-4.061-6.867z"></path>
	</symbol>
	<symbol id="icon-clock" viewBox="0 0 16 16">
		<path d="M10.293 11.707l-3.293-3.293v-4.414h2v3.586l2.707 2.707zM8 0c-4.418 0-8 3.582-8 8s3.582 8 8 8 8-3.582 8-8-3.582-8-8-8zM8 14c-3.314 0-6-2.686-6-6s2.686-6 6-6c3.314 0 6 2.686 6 6s-2.686 6-6 6z"></path>
	</symbol>
	<symbol id="icon-sensitivity" viewBox="0 0 16 16">
		<path d="M8 4c-2.209 0-4 1.791-4 4s1.791 4 4 4 4-1.791 4-4-1.791-4-4-4zM8 10.5v-5c1.379 0 2.5 1.122 2.5 2.5s-1.121 2.5-2.5 2.5zM8 13c0.552 0 1 0.448 1 1v1c0 0.552-0.448 1-1 1s-1-0.448-1-1v-1c0-0.552 0.448-1 1-1zM8 3c-0.552 0-1-0.448-1-1v-1c0-0.552 0.448-1 1-1s1 0.448 1 1v1c0 0.552-0.448 1-1 1zM15 7c0.552 0 1 0.448 1 1s-0.448 1-1 1h-1c-0.552 0-1-0.448-1-1s0.448-1 1-1h1zM3 8c0 0.552-0.448 1-1 1h-1c-0.552 0-1-0.448-1-1s0.448-1 1-1h1c0.552 0 1 0.448 1 1zM12.95 11.536l0.707 0.707c0.39 0.39 0.39 1.024 0 1.414s-1.024 0.39-1.414 0l-0.707-0.707c-0.39-0.39-0.39-1.024 0-1.414s1.024-0.39 1.414 0zM3.050 4.464l-0.707-0.707c-0.391-0.391-0.391-1.024 0-1.414s1.024-0.391 1.414 0l0.707 0.707c0.391 0.391 0.391 1.024 0 1.414s-1.024 0.391-1.414 0zM12.95 4.464c-0.39 0.391-1.024 0.391-1.414 0s-0.39-1.024 0-1.414l0.707-0.707c0.39-0.391 1.024-0.391 1.414 0s0.39 1.024 0 1.414l-0.707 0.707zM3.050 11.536c0.39-0.39 1.024-0.39 1.414 0s0.391 1.024 0 1.414l-0.707 0.707c-0.391 0.39-1.024 0.39-1.414 0s-0.391-1.024 0-1.414l0.707-0.707z"></path>
	</symbol>
	<symbol id="icon-lens" viewBox="0 0 16 16">
		<path d="M8 0c-4.418 0-8 3.582-8 8s3.582 8 8 8 8-3.582 8-8-3.582-8-8-8zM8 14c-3.314 0-6-2.686-6-6s2.686-6 6-6c3.314 0 6 2.686 6 6s-2.686 6-6 6zM5 8c0-1.657 1.343-3 3-3s3 1.343 3 3c0 1.657-1.343 3-3 3s-3-1.343-3-3z"></path>
	</symbol>
	<symbol id="icon-location" viewBox="0 0 16 16">
		<path d="M8 0c-2.761 0-5 2.239-5 5 0 5 5 11 5 11s5-6 5-11c0-2.761-2.239-5-5-5zM8 8c-1.657 0-3-1.343-3-3s1.343-3 3-3 3 1.343 3 3-1.343 3-3 3z"></path>
	</symbol>
	<symbol id="icon-reply" viewBox="0 0 16 16">
		<path d="M7 12.119v3.881l-6-6 6-6v3.966c6.98 0.164 6.681-4.747 4.904-7.966 4.386 4.741 3.455 12.337-4.904 12.119z"></path>
	</symbol>
	<symbol id="icon-link" viewBox="0 0 16 16">
		<path d="M6.879 9.934c-0.208 0-0.416-0.079-0.575-0.238-1.486-1.486-1.486-3.905 0-5.392l3-3c0.72-0.72 1.678-1.117 2.696-1.117s1.976 0.397 2.696 1.117c1.486 1.487 1.486 3.905 0 5.392l-1.371 1.371c-0.317 0.317-0.832 0.317-1.149 0s-0.317-0.832 0-1.149l1.371-1.371c0.853-0.853 0.853-2.241 0-3.094-0.413-0.413-0.963-0.641-1.547-0.641s-1.134 0.228-1.547 0.641l-3 3c-0.853 0.853-0.853 2.241 0 3.094 0.317 0.317 0.317 0.832 0 1.149-0.159 0.159-0.367 0.238-0.575 0.238z"></path>
		<path d="M4 15.813c-1.018 0-1.976-0.397-2.696-1.117-1.486-1.486-1.486-3.905 0-5.392l1.371-1.371c0.317-0.317 0.832-0.317 1.149 0s0.317 0.832 0 1.149l-1.371 1.371c-0.853 0.853-0.853 2.241 0 3.094 0.413 0.413 0.962 0.641 1.547 0.641s1.134-0.228 1.547-0.641l3-3c0.853-0.853 0.853-2.241 0-3.094-0.317-0.317-0.317-0.832 0-1.149s0.832-0.317 1.149 0c1.486 1.486 1.486 3.905 0 5.392l-3 3c-0.72 0.72-1.678 1.117-2.696 1.117z"></path>
	</symbol>
	<symbol id="icon-creative-commons" viewBox="0 0 16 16">
		<path d="M5.402 11.009c1.464 0 2.259-0.893 2.295-0.929 0.071-0.089 0.089-0.223 0.027-0.321l-0.402-0.732c-0.036-0.080-0.125-0.134-0.214-0.152-0.089-0.009-0.179 0.027-0.241 0.098-0.009 0-0.571 0.598-1.393 0.598-0.902 0-1.554-0.661-1.554-1.58 0-0.911 0.634-1.563 1.518-1.563 0.741 0 1.232 0.5 1.232 0.5 0.063 0.063 0.143 0.098 0.232 0.089s0.17-0.054 0.214-0.125l0.473-0.696c0.071-0.107 0.063-0.25-0.018-0.348-0.027-0.036-0.75-0.857-2.17-0.857-1.759 0-3.071 1.295-3.071 3.009 0 1.741 1.286 3.009 3.071 3.009zM11.027 11.009c1.473 0 2.259-0.893 2.295-0.929 0.071-0.089 0.089-0.223 0.036-0.321l-0.402-0.732c-0.045-0.080-0.125-0.134-0.223-0.152-0.089-0.009-0.179 0.027-0.241 0.098-0.009 0-0.571 0.598-1.393 0.598-0.902 0-1.554-0.661-1.554-1.58 0-0.911 0.634-1.563 1.518-1.563 0.75 0 1.232 0.5 1.232 0.5 0.063 0.063 0.143 0.098 0.232 0.089s0.17-0.054 0.214-0.125l0.473-0.696c0.071-0.107 0.063-0.25-0.018-0.348-0.027-0.036-0.75-0.857-2.17-0.857-1.75 0-3.071 1.295-3.071 3.009 0 1.741 1.286 3.009 3.071 3.009zM8 1.429c-3.625 0-6.571 2.946-6.571 6.571s2.946 6.571 6.571 6.571 6.571-2.946 6.571-6.571-2.946-6.571-6.571-6.571zM8 0c4.42 0 8 3.58 8 8s-3.58 8-8 8-8-3.58-8-8 3.58-8 8-8z"></path>
	</symbol>
	<symbol id="icon-xmpp viewBox="0 0 16 16">
		<path d="m 3.294034,0.91067195 c 0.0019,0.032294 -0.043928,0.023811 -0.043928,0.056399 0,0.94818985 -1.0999211,2.38162595 -2.2098526,2.66100855 v 0.029074 C 2.51494,3.5216308 4.1572705,2.0141624 4.19441,0.56178395 l -0.9002035,0.3489893 z"></path>
		<path d="m 2.8990266,1.0034222 c 0.0019,0.032294 0.00298,0.064761 0.00298,0.09735 0,0.9481903 -0.7550889,2.2258361 -1.8650204,2.5053176 v 0.040264 c 1.4527454,-0.094029 2.6024727,-1.5500934 2.6024727,-2.68585045 0,-0.058412 -0.00307,-0.1163129 -0.00912,-0.1735472 L 2.8991033,1.0032998 Z"></path>
		<path d="m 0.84206116,0.91067195 c -0.001895,0.032294 0.0439525,0.023811 0.0439525,0.056399 0,0.94818985 1.14512794,2.39478415 2.25513324,2.67429045 v 0.040311 C 1.6665591,3.5459039 -0.02088005,2.0140853 -0.05801955,0.56170745 l 0.90017901,0.3489892 z"></path>
		<path d="m 1.2880309,1.0273292 c -0.00187,0.032294 -0.00295,0.064687 -0.00295,0.097326 0,0.9481898 0.7550642,2.2258361 1.8650204,2.5053169 v 0.040311 C 1.6978718,3.6016613 0.547628,2.1201656 0.547628,0.98443335 c 0,-0.058418 0.003149,-0.1163135 0.009125,-0.1735472 L 1.287984,1.0272792 Z"></path>
		<path d="m 0.54971631,0.79738415 0.18734567,0.066949 c -0.001007,0.023664 -0.001625,0.05544 -0.001625,0.079321 0,1.01381135 0.91670742,2.41539535 2.14651852,2.63469105 0.079813,0.02676 0.1854027,0.051083 0.2688806,0.07209 v 0.040287 C 1.5458679,3.5539714 0.41825215,1.9231305 0.54959334,0.79728585 Z"></path>
		<path d="m 3.639604,0.77714155 -0.1926584,0.064564 c 0.00101,0.023687 0.0047,0.054186 0.0047,0.078042 0,1.01381125 -0.916732,2.41542005 -2.1465677,2.63469095 -0.079764,0.026784 -0.1854026,0.051084 -0.2688313,0.072114 v 0.040311 C 2.7172147,3.4538648 3.7707972,1.9028867 3.6394561,0.77711565 Z"></path>
	</symbol>
	<symbol id="icon-flickr" viewBox="0 0 16 16">
		<path d="M12.5 6.5c-1.103 0-2 0.897-2 2s0.897 2 2 2c1.103 0 2-0.897 2-2s-0.897-2-2-2zM12.5 5v0c1.933 0 3.5 1.567 3.5 3.5s-1.567 3.5-3.5 3.5-3.5-1.567-3.5-3.5c0-1.933 1.567-3.5 3.5-3.5zM0 8.5c0-1.933 1.567-3.5 3.5-3.5s3.5 1.567 3.5 3.5c0 1.933-1.567 3.5-3.5 3.5s-3.5-1.567-3.5-3.5z"></path>
	</symbol>
	<symbol id="icon-github" viewBox="0 0 16 16">
		<path d="M8 0.198c-4.418 0-8 3.582-8 8 0 3.535 2.292 6.533 5.471 7.591 0.4 0.074 0.547-0.174 0.547-0.385 0-0.191-0.008-0.821-0.011-1.489-2.226 0.484-2.695-0.944-2.695-0.944-0.364-0.925-0.888-1.171-0.888-1.171-0.726-0.497 0.055-0.486 0.055-0.486 0.803 0.056 1.226 0.824 1.226 0.824 0.714 1.223 1.872 0.869 2.328 0.665 0.072-0.517 0.279-0.87 0.508-1.070-1.777-0.202-3.645-0.888-3.645-3.954 0-0.873 0.313-1.587 0.824-2.147-0.083-0.202-0.357-1.015 0.077-2.117 0 0 0.672-0.215 2.201 0.82 0.638-0.177 1.322-0.266 2.002-0.269 0.68 0.003 1.365 0.092 2.004 0.269 1.527-1.035 2.198-0.82 2.198-0.82 0.435 1.102 0.162 1.916 0.079 2.117 0.513 0.56 0.823 1.274 0.823 2.147 0 3.073-1.872 3.749-3.653 3.947 0.287 0.248 0.543 0.735 0.543 1.481 0 1.070-0.009 1.932-0.009 2.195 0 0.213 0.144 0.462 0.55 0.384 3.177-1.059 5.466-4.057 5.466-7.59 0-4.418-3.582-8-8-8z"></path>
	</symbol>
	<symbol id="icon-gpg" viewBox="0 0 16 16">
		<path d="M9.25 7h-0.25v-3c0-1.654-1.346-3-3-3h-2c-1.654 0-3 1.346-3 3v3h-0.25c-0.412 0-0.75 0.338-0.75 0.75v7.5c0 0.412 0.338 0.75 0.75 0.75h8.5c0.412 0 0.75-0.338 0.75-0.75v-7.5c0-0.412-0.338-0.75-0.75-0.75zM3 4c0-0.551 0.449-1 1-1h2c0.551 0 1 0.449 1 1v3h-4v-3z"></path>
	</symbol>
	<symbol id="icon-email" viewBox="0 0 16 16">
		<path d="M13.333 0h-10.666c-1.467 0-2.667 1.2-2.667 2.667v10.666c0 1.467 1.2 2.667 2.667 2.667h10.666c1.468 0 2.667-1.2 2.667-2.667v-10.666c0-1.467-1.199-2.667-2.667-2.667zM4 4h8c0.143 0 0.281 0.031 0.409 0.088l-4.409 5.143-4.409-5.143c0.127-0.058 0.266-0.088 0.409-0.088zM3 11v-6c0-0.021 0.001-0.042 0.002-0.063l2.932 3.421-2.9 2.9c-0.023-0.083-0.034-0.17-0.034-0.258zM12 12h-8c-0.088 0-0.175-0.012-0.258-0.034l2.846-2.846 1.413 1.648 1.413-1.648 2.846 2.846c-0.083 0.023-0.17 0.034-0.258 0.034zM13 11c0 0.088-0.012 0.175-0.034 0.258l-2.9-2.9 2.932-3.421c0.001 0.021 0.002 0.042 0.002 0.063v6z"></path>
	</symbol>
	<symbol id="icon-qr" viewBox="0 0 16 16">
		<path d="M5 1h-4v4h4v-4zM6 0v0 6h-6v-6h6zM2 2h2v2h-2zM15 1h-4v4h4v-4zM16 0v0 6h-6v-6h6zM12 2h2v2h-2zM5 11h-4v4h4v-4zM6 10v0 6h-6v-6h6zM2 12h2v2h-2zM7 0h1v1h-1zM8 1h1v1h-1zM7 2h1v1h-1zM8 3h1v1h-1zM7 4h1v1h-1zM8 5h1v1h-1zM7 6h1v1h-1zM7 8h1v1h-1zM8 9h1v1h-1zM7 10h1v1h-1zM8 11h1v1h-1zM7 12h1v1h-1zM8 13h1v1h-1zM7 14h1v1h-1zM8 15h1v1h-1zM15 8h1v1h-1zM1 8h1v1h-1zM2 7h1v1h-1zM0 7h1v1h-1zM4 7h1v1h-1zM5 8h1v1h-1zM6 7h1v1h-1zM9 8h1v1h-1zM10 7h1v1h-1zM11 8h1v1h-1zM12 7h1v1h-1zM13 8h1v1h-1zM14 7h1v1h-1zM15 10h1v1h-1zM9 10h1v1h-1zM10 9h1v1h-1zM11 10h1v1h-1zM13 10h1v1h-1zM14 9h1v1h-1zM15 12h1v1h-1zM9 12h1v1h-1zM10 11h1v1h-1zM12 11h1v1h-1zM13 12h1v1h-1zM14 11h1v1h-1zM15 14h1v1h-1zM10 13h1v1h-1zM11 14h1v1h-1zM12 13h1v1h-1zM13 14h1v1h-1zM10 15h1v1h-1zM12 15h1v1h-1zM14 15h1v1h-1z"></path>
	</symbol>
	<symbol id="icon-sip" viewBox="0 0 16 16">
		<path d="M11 10c-1 1-1 2-2 2s-2-1-3-2-2-2-2-3 1-1 2-2-2-4-3-4-3 3-3 3c0 2 2.055 6.055 4 8s6 4 8 4c0 0 3-2 3-3s-3-4-4-3z"></path>
	</symbol>



</svg>
